<?xml version="1.0" encoding="UTF-8"?>
<svg width="427px" height="533px" viewBox="0 0 427 533" version="1.1" xmlns="http://www.w3.org/2000/svg" xmlns:xlink="http://www.w3.org/1999/xlink">
    <!-- Generator: Sketch 48.2 (47327) - http://www.bohemiancoding.com/sketch -->
    <title>Artboard 4</title>
    <desc>Created with Sketch.</desc>
    <defs>
        <linearGradient x1="100%" y1="50%" x2="30.0573656%" y2="50%" id="linearGradient-1">
            <stop stop-color="#000000" offset="0%"></stop>
            <stop stop-color="#BABABA" offset="22.2177934%"></stop>
            <stop stop-color="#000108" offset="54.6780492%"></stop>
            <stop stop-color="#060606" offset="100%"></stop>
        </linearGradient>
        <path d="M77.9087002,0 L30.9760333,1.13965223e-13 C13.0566835,1.13965223e-13 0,13.280992 0,30.6267756 L0,772.334632 C0,794.951607 20.1749563,814.990792 42.9877521,814.990792 L332.378459,814.990792 C354.353523,814.990792 375.366211,794.795954 375.366211,772.334632 L375.366211,32.631673 C375.366211,11.841512 361.182451,0.123634465 344.390178,1.13965223e-13 L295.556776,1.13965223e-13 C295.094589,0.0824229765 293.523493,0.123634465 292.845442,0.123634465 C288.309598,0.123634465 286.858011,4.07636365 286.858011,13.280992 C286.858011,22.4856204 276.19133,30.2640509 268.390086,30.2640509 L236.684113,30.2640509 L119.291393,30.2640509 L105.685139,30.2640509 C101.976837,30.2640509 88.3757494,25.9784972 87.270689,13.280992 C86.1656286,0.583486884 86.0085471,0.123634465 79.6190584,0.123634465 C78.9410069,0.123634465 78.3708875,0.0824229765 77.9087002,0 Z" id="path-2"></path>
        <linearGradient x1="50%" y1="-21.4810075%" x2="50%" y2="100%" id="linearGradient-4">
            <stop stop-color="#2AF598" offset="0%"></stop>
            <stop stop-color="#08AEEA" offset="100%"></stop>
        </linearGradient>
        <rect id="path-5" x="0" y="0" width="375.366211" height="814.990792"></rect>
        <rect id="path-6" x="20.0195312" y="55.2025783" width="119.724648" height="41.1510129" rx="7"></rect>
        <rect id="path-7" x="157.15332" y="55.2025783" width="119.724648" height="41.1510129" rx="7"></rect>
        <linearGradient x1="100%" y1="50%" x2="0%" y2="50%" id="linearGradient-8">
            <stop stop-color="#FFFFFF" stop-opacity="0" offset="0%"></stop>
            <stop stop-color="#FFFFFF" stop-opacity="0.55" offset="100%"></stop>
        </linearGradient>
    </defs>
    <g id="Page-1" stroke="none" stroke-width="1" fill="none" fill-rule="evenodd">
        <g id="Artboard-4">
            <g id="iPhone-X-Mockup" transform="translate(2.000000, -215.000000)">
                <g id="phone">
                    <path d="M57.5450304,1.00368324 L365.868056,1.00368324 C395.438002,1.00368324 419.40918,25.3483642 419.40918,55.37905 L419.40918,799.759071 C419.40918,829.789757 395.438002,854.134438 365.868056,854.134438 L57.5450304,854.134438 C27.975084,854.134438 4.00390625,829.789757 4.00390625,799.759071 L4.00390625,55.37905 C4.00390625,25.3483642 27.975084,1.00368324 57.5450304,1.00368324 Z" id="body" fill="#000105"></path>
                    <g id="frame" transform="translate(4.003906, 0.000000)" fill="url(#linearGradient-1)" opacity="0.650000036">
                        <path d="M407.172536,791.294917 L407.172536,59.8284711 C407.172536,40.2025978 400.369801,32.9474629 396.311614,28.2887786 C392.253428,23.6300943 392.0807,21.2539563 397.911616,24.7713675 C403.742532,28.2887786 415.405273,38.5334317 415.405273,59.8284711 L415.405273,791.294917 C415.405273,812.589957 403.742532,822.83461 397.911616,826.352021 C392.0807,829.869432 392.253428,827.493294 396.311614,822.83461 C400.369801,818.175926 407.172536,810.920791 407.172536,791.294917 Z" id="reflect-frame-right"></path>
                        <path d="M13.7887473,791.294917 L13.7887473,59.8284711 C13.7887473,40.2025978 6.98601196,32.9474629 2.92782532,28.2887786 C-1.13036133,23.6300943 -1.3030888,21.2539563 4.52782722,24.7713675 C10.3587432,28.2887786 22.0214844,38.5334317 22.0214844,59.8284711 L22.0214844,791.294917 C22.0214844,812.589957 10.3587432,822.83461 4.52782722,826.352021 C-1.3030888,829.869432 -1.13036133,827.493294 2.92782532,822.83461 C6.98601196,818.175926 13.7887473,810.920791 13.7887473,791.294917 Z" id="reflect-frame-left" transform="translate(11.010742, 425.561694) scale(-1, 1) translate(-11.010742, -425.561694) "></path>
                    </g>
                    <g id="controls" transform="translate(0.000000, 113.416206)" fill="#000000">
                        <rect id="vol+" x="0" y="60.2209945" width="8.0078125" height="64.2357274" rx="2"></rect>
                        <rect id="power" x="415.405273" y="40.1473297" width="8.0078125" height="80.2946593" rx="2"></rect>
                        <rect id="vol-" x="0" y="140.515654" width="8.0078125" height="64.2357274" rx="2"></rect>
                    </g>
                </g>
                <g id="Screen" transform="translate(24.023437, 20.073665)">
                    <mask id="mask-3" fill="white">
                        <use xlink:href="#path-2"></use>
                    </mask>
                    <use id="Screen-Mask" fill="#E3ECF6" xlink:href="#path-2"></use>
                    <g id="Group-2" mask="url(#mask-3)">
                        <g transform="translate(0.000000, 162.596685)">
                            <g id="Rectangle-5">
                                <use fill="url(#linearGradient-4)" fill-rule="evenodd" xlink:href="#path-5"></use>
                                <rect stroke="#979797" stroke-width="1" x="0.5" y="0.5" width="374.366211" height="813.990792"></rect>
                            </g>
                            <g id="Group-6" stroke-width="1" fill-rule="evenodd" transform="translate(30.029297, 428.572744)">
                                <g id="Group-4-Copy-2" fill="#FFFFFF" stroke="#D3D3D3" stroke-width="0.5">
                                    <g id="Group-2-Copy">
                                        <path d="M24.6458056,-6.69723627e-16 L77.4538038,-2.56840224e-15 C84.0847637,2.10298573e-15 87.934267,0.974668917 91.3564893,2.80489339 C94.7787115,4.63511786 97.4644915,7.32089789 99.294716,10.7431201 C101.12494,14.1653423 102.099609,18.0148456 102.099609,24.6458056 L102.099609,29.5530894 C102.099609,36.1840494 101.12494,40.0335527 99.294716,43.4557749 C97.4644915,46.8779971 94.7787115,49.5637772 91.3564893,51.3940016 C87.934267,53.2242261 84.0847637,54.198895 77.4538038,54.198895 L24.6458056,54.198895 C18.0148456,54.198895 14.1653423,53.2242261 10.7431201,51.3940016 C7.32089789,49.5637772 4.63511786,46.8779971 2.80489339,43.4557749 C0.974668917,40.0335527 3.65575975e-16,36.1840494 -4.46482418e-16,29.5530894 L-3.10623126e-15,24.6458056 C-3.91828965e-15,18.0148456 0.974668917,14.1653423 2.80489339,10.7431201 C4.63511786,7.32089789 7.32089789,4.63511786 10.7431201,2.80489339 C14.1653423,0.974668917 18.0148456,5.48363962e-16 24.6458056,-6.69723627e-16 Z" id="Combined-Shape"></path>
                                    </g>
                                </g>
                                <g id="Group-5" transform="translate(25.024414, 23.084715)">
                                    <ellipse id="Oval-2" fill="#C4C3C3" cx="5.00488281" cy="5.01841621" rx="5.00488281" ry="5.01841621"></ellipse>
                                    <ellipse id="Oval-2-Copy" fill="#D8D8D8" cx="26.0253906" cy="5.01841621" rx="5.00488281" ry="5.01841621"></ellipse>
                                    <ellipse id="Oval-2-Copy-2" fill="#C4C3C3" cx="47.0458984" cy="5.01841621" rx="5.00488281" ry="5.01841621"></ellipse>
                                </g>
                            </g>
                            <g id="Group-2" stroke-width="1" fill-rule="evenodd" transform="translate(30.029297, 124.456722)">
                                <path d="M26.9207946,-1.08763232e-15 L278.377057,1.08763232e-15 C287.738004,-6.31945701e-16 291.132509,0.974668917 294.554731,2.80489339 C297.976954,4.63511786 300.662734,7.32089789 302.492958,10.7431201 C304.323183,14.1653423 305.297852,17.5598478 305.297852,26.9207946 L305.297852,54.3775479 C305.297852,63.7384947 304.323183,67.1330002 302.492958,70.5552224 C300.662734,73.9774447 297.976954,76.6632247 294.554731,78.4934492 C291.132509,80.3236736 287.738004,81.2983425 278.377057,81.2983425 L26.9207946,81.2983425 C17.5598478,81.2983425 14.1653423,80.3236736 10.7431201,78.4934492 C7.32089789,76.6632247 4.63511786,73.9774447 2.80489339,70.5552224 C0.974668917,67.1330002 4.21297134e-16,63.7384947 -7.25088215e-16,54.3775479 L7.25088215e-16,26.9207946 C-4.21297134e-16,17.5598478 0.974668917,14.1653423 2.80489339,10.7431201 C4.63511786,7.32089789 7.32089789,4.63511786 10.7431201,2.80489339 C14.1653423,0.974668917 17.5598478,6.31945701e-16 26.9207946,-1.08763232e-15 Z" id="Combined-Shape" stroke="#D3D3D3" stroke-width="0.5" fill="#FFFFFF"></path>
                                <path d="M22.9174869,32.1565378 L21.0581119,32.1565378 L21.0581119,20.1785104 L22.9174869,20.1785104 L22.9174869,32.1565378 Z M26.5408228,24.5613229 L25.1130884,24.5613229 L25.8518579,20.1785104 L27.669729,20.1785104 L26.5408228,24.5613229 Z M29.1265611,32.1565378 L29.1265611,23.4241159 L30.836522,23.4241159 L30.836522,24.8933542 L30.8780259,24.8933542 C31.2681626,23.9221628 32.1812486,23.2747018 33.3599595,23.2747018 C34.5718736,23.2747018 35.4517564,23.8972604 35.8003892,24.9846628 L35.8418931,24.9846628 C36.2901353,23.9221628 37.3194322,23.2747018 38.5645494,23.2747018 C40.2911119,23.2747018 41.4200181,24.4202096 41.4200181,26.1550729 L41.4200181,32.1565378 L39.6187486,32.1565378 L39.6187486,26.5867135 C39.6187486,25.4578073 39.0127915,24.8103463 37.9502915,24.8103463 C36.8877915,24.8103463 36.149022,25.5989206 36.149022,26.7029245 L36.149022,32.1565378 L34.3892564,32.1565378 L34.3892564,26.453901 C34.3892564,25.4495065 33.7500962,24.8103463 32.7374009,24.8103463 C31.6749009,24.8103463 30.9195298,25.6404245 30.9195298,26.7610299 L30.9195298,32.1565378 L29.1265611,32.1565378 Z M51.7462798,32.1565378 L49.8869048,32.1565378 L49.8869048,21.7805612 L46.2179595,21.7805612 L46.2179595,20.1785104 L55.4069244,20.1785104 L55.4069244,21.7805612 L51.7462798,21.7805612 L51.7462798,32.1565378 Z M57.6440298,30.8865182 C58.8974478,30.8865182 59.87694,30.023237 59.87694,28.8860299 L59.87694,28.1970651 L57.7270376,28.3298776 C56.6562369,28.4045846 56.0502798,28.8777292 56.0502798,29.6247995 C56.0502798,30.3884713 56.6811392,30.8865182 57.6440298,30.8865182 Z M57.145983,32.3059518 C55.436022,32.3059518 54.2407095,31.2434518 54.2407095,29.6746042 C54.2407095,28.1472604 55.4111197,27.2092721 57.486315,27.0930612 L59.87694,26.9519479 L59.87694,26.2795846 C59.87694,25.3083932 59.2211783,24.7273385 58.1254751,24.7273385 C57.0878775,24.7273385 56.4404165,25.2253854 56.2827017,26.0056588 L54.5893423,26.0056588 C54.6889517,24.4285104 56.0336783,23.266401 58.1918814,23.266401 C60.3085806,23.266401 61.661608,24.3870065 61.661608,26.1384713 L61.661608,32.1565378 L59.9433462,32.1565378 L59.9433462,30.7205026 L59.9018423,30.7205026 C59.3954947,31.691694 58.2914908,32.3059518 57.145983,32.3059518 Z M63.5168775,32.1565378 L63.5168775,20.1785104 L65.3098462,20.1785104 L65.3098462,32.1565378 L63.5168775,32.1565378 Z M69.0825962,27.1677682 L72.6104283,23.4241159 L74.7188267,23.4241159 L71.0996861,27.1843698 L74.85994,32.1565378 L72.7764439,32.1565378 L69.813065,28.2800729 L69.0659947,29.0188424 L69.0659947,32.1565378 L67.2730259,32.1565378 L67.2730259,20.1785104 L69.0659947,20.1785104 L69.0659947,27.1677682 L69.0825962,27.1677682 Z M76.698608,35.410444 C76.5574947,35.410444 76.1009517,35.3938424 75.9681392,35.3689401 L75.9681392,33.9163034 C76.1009517,33.9495065 76.3997798,33.9495065 76.5491939,33.9495065 C77.3875728,33.9495065 77.8275142,33.6008737 78.10144,32.7043893 C78.10144,32.6877878 78.2591548,32.1731393 78.2591548,32.1648385 L75.104858,23.4241159 L77.0472408,23.4241159 L79.2635494,30.5295846 L79.2884517,30.5295846 L81.5047603,23.4241159 L83.3973384,23.4241159 L80.1185298,32.6130807 C79.3714595,34.7297799 78.5164791,35.410444 76.698608,35.410444 Z M91.0507486,30.8865182 C92.3041666,30.8865182 93.2836587,30.023237 93.2836587,28.8860299 L93.2836587,28.1970651 L91.1337564,28.3298776 C90.0629556,28.4045846 89.4569986,28.8777292 89.4569986,29.6247995 C89.4569986,30.3884713 90.087858,30.8865182 91.0507486,30.8865182 Z M90.5527017,32.3059518 C88.8427408,32.3059518 87.6474283,31.2434518 87.6474283,29.6746042 C87.6474283,28.1472604 88.8178384,27.2092721 90.8930337,27.0930612 L93.2836587,26.9519479 L93.2836587,26.2795846 C93.2836587,25.3083932 92.627897,24.7273385 91.5321939,24.7273385 C90.4945962,24.7273385 89.8471353,25.2253854 89.6894205,26.0056588 L87.9960611,26.0056588 C88.0956705,24.4285104 89.440397,23.266401 91.5986001,23.266401 C93.7152994,23.266401 95.0683267,24.3870065 95.0683267,26.1384713 L95.0683267,32.1565378 L93.350065,32.1565378 L93.350065,30.7205026 L93.3085611,30.7205026 C92.8022134,31.691694 91.6982095,32.3059518 90.5527017,32.3059518 Z M96.85719,32.1565378 L96.85719,23.4241159 L98.5671509,23.4241159 L98.5671509,24.8850534 L98.6086548,24.8850534 C99.0817994,23.8889596 100.011487,23.2747018 101.356213,23.2747018 C103.281995,23.2747018 104.385999,24.5032174 104.385999,26.5037057 L104.385999,32.1565378 L102.584729,32.1565378 L102.584729,26.8523385 C102.584729,25.5408151 101.970471,24.8186471 100.725354,24.8186471 C99.4636353,24.8186471 98.6501587,25.7151315 98.6501587,27.0681588 L98.6501587,32.1565378 L96.85719,32.1565378 Z M109.44537,32.3059518 C107.237362,32.3059518 105.776424,30.5461862 105.776424,27.7903268 C105.776424,25.0344674 107.237362,23.2830026 109.428768,23.2830026 C110.682186,23.2830026 111.67828,23.913862 112.168026,24.8767526 L112.201229,24.8767526 L112.201229,20.1785104 L114.002499,20.1785104 L114.002499,32.1565378 L112.259335,32.1565378 L112.259335,30.6706979 L112.226131,30.6706979 C111.711483,31.6667917 110.715389,32.3059518 109.44537,32.3059518 Z M109.918514,24.7937448 C108.499081,24.7937448 107.610897,25.9558542 107.610897,27.7903268 C107.610897,29.6331003 108.499081,30.7869088 109.918514,30.7869088 C111.296444,30.7869088 112.217831,29.6164987 112.217831,27.7903268 C112.217831,25.9807565 111.296444,24.7937448 109.918514,24.7937448 Z M119.389795,32.1565378 L119.389795,23.4241159 L121.099756,23.4241159 L121.099756,24.8933542 L121.14126,24.8933542 C121.531397,23.9221628 122.444483,23.2747018 123.623194,23.2747018 C124.835108,23.2747018 125.714991,23.8972604 126.063624,24.9846628 L126.105127,24.9846628 C126.55337,23.9221628 127.582667,23.2747018 128.827784,23.2747018 C130.554346,23.2747018 131.683252,24.4202096 131.683252,26.1550729 L131.683252,32.1565378 L129.881983,32.1565378 L129.881983,26.5867135 C129.881983,25.4578073 129.276026,24.8103463 128.213526,24.8103463 C127.151026,24.8103463 126.412256,25.5989206 126.412256,26.7029245 L126.412256,32.1565378 L124.652491,32.1565378 L124.652491,26.453901 C124.652491,25.4495065 124.013331,24.8103463 123.000635,24.8103463 C121.938135,24.8103463 121.182764,25.6404245 121.182764,26.7610299 L121.182764,32.1565378 L119.389795,32.1565378 Z M134.327096,35.410444 C134.185983,35.410444 133.72944,35.3938424 133.596627,35.3689401 L133.596627,33.9163034 C133.72944,33.9495065 134.028268,33.9495065 134.177682,33.9495065 C135.016061,33.9495065 135.456002,33.6008737 135.729928,32.7043893 C135.729928,32.6877878 135.887643,32.1731393 135.887643,32.1648385 L132.733346,23.4241159 L134.675729,23.4241159 L136.892038,30.5295846 L136.91694,30.5295846 L139.133249,23.4241159 L141.025827,23.4241159 L137.747018,32.6130807 C136.999948,34.7297799 136.144967,35.410444 134.327096,35.410444 Z M145.624549,32.1565378 L145.624549,23.4241159 L147.33451,23.4241159 L147.33451,24.8933542 L147.376014,24.8933542 C147.766151,23.9221628 148.679237,23.2747018 149.857948,23.2747018 C151.069862,23.2747018 151.949745,23.8972604 152.298378,24.9846628 L152.339881,24.9846628 C152.788124,23.9221628 153.81742,23.2747018 155.062538,23.2747018 C156.7891,23.2747018 157.918006,24.4202096 157.918006,26.1550729 L157.918006,32.1565378 L156.116737,32.1565378 L156.116737,26.5867135 C156.116737,25.4578073 155.51078,24.8103463 154.44828,24.8103463 C153.38578,24.8103463 152.64701,25.5989206 152.64701,26.7029245 L152.64701,32.1565378 L150.887245,32.1565378 L150.887245,26.453901 C150.887245,25.4495065 150.248085,24.8103463 149.235389,24.8103463 C148.172889,24.8103463 147.417518,25.6404245 147.417518,26.7610299 L147.417518,32.1565378 L145.624549,32.1565378 Z M159.756674,32.1565378 L159.756674,23.4241159 L161.549643,23.4241159 L161.549643,32.1565378 L159.756674,32.1565378 Z M160.653159,22.1457956 C160.080405,22.1457956 159.615561,21.6892526 159.615561,21.1247995 C159.615561,20.5520456 160.080405,20.0955026 160.653159,20.0955026 C161.234213,20.0955026 161.699057,20.5520456 161.699057,21.1247995 C161.699057,21.6892526 161.234213,22.1457956 160.653159,22.1457956 Z M163.280401,25.8977487 C163.280401,24.3372018 164.658331,23.266401 166.700323,23.266401 C168.642706,23.266401 170.004034,24.3538034 170.062139,25.9060495 L168.377081,25.9060495 C168.294073,25.1174753 167.654913,24.6277292 166.650518,24.6277292 C165.679327,24.6277292 165.031866,25.1008737 165.031866,25.7898385 C165.031866,26.3293893 165.463506,26.6946237 166.368292,26.9187448 L167.83753,27.2590768 C169.597295,27.6824167 170.261358,28.3464792 170.261358,29.6331003 C170.261358,31.2268503 168.775518,32.3225534 166.633917,32.3225534 C164.567022,32.3225534 163.197393,31.2517526 163.05628,29.6497018 L164.832647,29.6497018 C164.97376,30.4880807 165.621221,30.9529245 166.716924,30.9529245 C167.796026,30.9529245 168.460088,30.5046823 168.460088,29.7991159 C168.460088,29.2429635 168.128057,28.9358346 167.214971,28.7034128 L165.654424,28.3215768 C164.077276,27.9397409 163.280401,27.1179635 163.280401,25.8977487 Z M171.552174,25.8977487 C171.552174,24.3372018 172.930104,23.266401 174.972096,23.266401 C176.914479,23.266401 178.275807,24.3538034 178.333913,25.9060495 L176.648854,25.9060495 C176.565846,25.1174753 175.926686,24.6277292 174.922292,24.6277292 C173.9511,24.6277292 173.303639,25.1008737 173.303639,25.7898385 C173.303639,26.3293893 173.73528,26.6946237 174.640065,26.9187448 L176.109303,27.2590768 C177.869069,27.6824167 178.533131,28.3464792 178.533131,29.6331003 C178.533131,31.2268503 177.047292,32.3225534 174.90569,32.3225534 C172.838795,32.3225534 171.469167,31.2517526 171.328053,29.6497018 L173.10442,29.6497018 C173.245534,30.4880807 173.892995,30.9529245 174.988698,30.9529245 C176.067799,30.9529245 176.731862,30.5046823 176.731862,29.7991159 C176.731862,29.2429635 176.399831,28.9358346 175.486745,28.7034128 L173.926198,28.3215768 C172.349049,27.9397409 171.552174,27.1179635 171.552174,25.8977487 Z M180.039768,32.1565378 L180.039768,23.4241159 L181.832737,23.4241159 L181.832737,32.1565378 L180.039768,32.1565378 Z M180.936253,22.1457956 C180.363499,22.1457956 179.898655,21.6892526 179.898655,21.1247995 C179.898655,20.5520456 180.363499,20.0955026 180.936253,20.0955026 C181.517307,20.0955026 181.982151,20.5520456 181.982151,21.1247995 C181.982151,21.6892526 181.517307,22.1457956 180.936253,22.1457956 Z M187.473163,32.3225534 C184.974628,32.3225534 183.331073,30.6042917 183.331073,27.7903268 C183.331073,24.9846628 184.982928,23.266401 187.473163,23.266401 C189.963397,23.266401 191.615253,24.9846628 191.615253,27.7903268 C191.615253,30.6042917 189.971698,32.3225534 187.473163,32.3225534 Z M187.473163,30.8450143 C188.884295,30.8450143 189.789081,29.7327096 189.789081,27.7903268 C189.789081,25.8562448 188.875995,24.7439401 187.473163,24.7439401 C186.070331,24.7439401 185.157245,25.8562448 185.157245,27.7903268 C185.157245,29.7327096 186.070331,30.8450143 187.473163,30.8450143 Z M193.055483,32.1565378 L193.055483,23.4241159 L194.765444,23.4241159 L194.765444,24.8850534 L194.806948,24.8850534 C195.280092,23.8889596 196.20978,23.2747018 197.554506,23.2747018 C199.480288,23.2747018 200.584292,24.5032174 200.584292,26.5037057 L200.584292,32.1565378 L198.783022,32.1565378 L198.783022,26.8523385 C198.783022,25.5408151 198.168764,24.8186471 196.923647,24.8186471 C195.661928,24.8186471 194.848452,25.7151315 194.848452,27.0681588 L194.848452,32.1565378 L193.055483,32.1565378 Z M205.921784,32.1565378 L205.921784,23.4241159 L207.714753,23.4241159 L207.714753,32.1565378 L205.921784,32.1565378 Z M206.818268,22.1457956 C206.245514,22.1457956 205.78067,21.6892526 205.78067,21.1247995 C205.78067,20.5520456 206.245514,20.0955026 206.818268,20.0955026 C207.399323,20.0955026 207.864167,20.5520456 207.864167,21.1247995 C207.864167,21.6892526 207.399323,22.1457956 206.818268,22.1457956 Z M209.44551,25.8977487 C209.44551,24.3372018 210.82344,23.266401 212.865432,23.266401 C214.807815,23.266401 216.169143,24.3538034 216.227249,25.9060495 L214.54219,25.9060495 C214.459182,25.1174753 213.820022,24.6277292 212.815628,24.6277292 C211.844436,24.6277292 211.196975,25.1008737 211.196975,25.7898385 C211.196975,26.3293893 211.628616,26.6946237 212.533401,26.9187448 L214.002639,27.2590768 C215.762405,27.6824167 216.426467,28.3464792 216.426467,29.6331003 C216.426467,31.2268503 214.940628,32.3225534 212.799026,32.3225534 C210.732131,32.3225534 209.362503,31.2517526 209.221389,29.6497018 L210.997756,29.6497018 C211.13887,30.4880807 211.786331,30.9529245 212.882034,30.9529245 C213.961135,30.9529245 214.625198,30.5046823 214.625198,29.7991159 C214.625198,29.2429635 214.293167,28.9358346 213.380081,28.7034128 L211.819534,28.3215768 C210.242385,27.9397409 209.44551,27.1179635 209.44551,25.8977487 Z M221.896772,21.3572213 L223.698042,21.3572213 L223.698042,23.4241159 L225.358198,23.4241159 L225.358198,24.8435495 L223.698042,24.8435495 L223.698042,29.6580026 C223.698042,30.4133737 224.030073,30.7537057 224.760542,30.7537057 C224.943159,30.7537057 225.233686,30.7371042 225.349897,30.7122018 L225.349897,32.1316354 C225.150678,32.1814401 224.752241,32.2146432 224.353803,32.2146432 C222.585737,32.2146432 221.896772,31.5422799 221.896772,29.8572213 L221.896772,24.8435495 L220.626753,24.8435495 L220.626753,23.4241159 L221.896772,23.4241159 L221.896772,21.3572213 Z M230.42587,32.3225534 C227.927335,32.3225534 226.28378,30.6042917 226.28378,27.7903268 C226.28378,24.9846628 227.935635,23.266401 230.42587,23.266401 C232.916104,23.266401 234.56796,24.9846628 234.56796,27.7903268 C234.56796,30.6042917 232.924405,32.3225534 230.42587,32.3225534 Z M230.42587,30.8450143 C231.837003,30.8450143 232.741788,29.7327096 232.741788,27.7903268 C232.741788,25.8562448 231.828702,24.7439401 230.42587,24.7439401 C229.023038,24.7439401 228.109952,25.8562448 228.109952,27.7903268 C228.109952,29.7327096 229.023038,30.8450143 230.42587,30.8450143 Z M239.507014,32.1565378 L239.507014,23.4241159 L241.216975,23.4241159 L241.216975,24.8933542 L241.258479,24.8933542 C241.648616,23.9221628 242.561702,23.2747018 243.740413,23.2747018 C244.952327,23.2747018 245.83221,23.8972604 246.180842,24.9846628 L246.222346,24.9846628 C246.670588,23.9221628 247.699885,23.2747018 248.945003,23.2747018 C250.671565,23.2747018 251.800471,24.4202096 251.800471,26.1550729 L251.800471,32.1565378 L249.999202,32.1565378 L249.999202,26.5867135 C249.999202,25.4578073 249.393245,24.8103463 248.330745,24.8103463 C247.268245,24.8103463 246.529475,25.5989206 246.529475,26.7029245 L246.529475,32.1565378 L244.76971,32.1565378 L244.76971,26.453901 C244.76971,25.4495065 244.130549,24.8103463 243.117854,24.8103463 C242.055354,24.8103463 241.299983,25.6404245 241.299983,26.7610299 L241.299983,32.1565378 L239.507014,32.1565378 Z M256.635721,30.8865182 C257.889139,30.8865182 258.868631,30.023237 258.868631,28.8860299 L258.868631,28.1970651 L256.718729,28.3298776 C255.647928,28.4045846 255.041971,28.8777292 255.041971,29.6247995 C255.041971,30.3884713 255.672831,30.8865182 256.635721,30.8865182 Z M256.137674,32.3059518 C254.427713,32.3059518 253.232401,31.2434518 253.232401,29.6746042 C253.232401,28.1472604 254.402811,27.2092721 256.478006,27.0930612 L258.868631,26.9519479 L258.868631,26.2795846 C258.868631,25.3083932 258.21287,24.7273385 257.117167,24.7273385 C256.079569,24.7273385 255.432108,25.2253854 255.274393,26.0056588 L253.581034,26.0056588 C253.680643,24.4285104 255.02537,23.266401 257.183573,23.266401 C259.300272,23.266401 260.653299,24.3870065 260.653299,26.1384713 L260.653299,32.1565378 L258.935038,32.1565378 L258.935038,30.7205026 L258.893534,30.7205026 C258.387186,31.691694 257.283182,32.3059518 256.137674,32.3059518 Z M264.318139,27.1677682 L267.845971,23.4241159 L269.95437,23.4241159 L266.335229,27.1843698 L270.095483,32.1565378 L268.011987,32.1565378 L265.048608,28.2800729 L264.301538,29.0188424 L264.301538,32.1565378 L262.508569,32.1565378 L262.508569,20.1785104 L264.301538,20.1785104 L264.301538,27.1677682 L264.318139,27.1677682 Z M274.308174,24.710737 C273.054756,24.710737 272.174874,25.6653268 272.083565,26.985151 L276.449776,26.985151 C276.408272,25.6487253 275.561592,24.710737 274.308174,24.710737 Z M276.441475,29.5915963 L278.143135,29.5915963 C277.894112,31.1853463 276.38337,32.3225534 274.382881,32.3225534 C271.81794,32.3225534 270.265694,30.5876901 270.265694,27.8318307 C270.265694,25.0925729 271.842842,23.266401 274.308174,23.266401 C276.732003,23.266401 278.242745,24.976362 278.242745,27.6243112 L278.242745,28.238569 L272.075264,28.238569 L272.075264,28.3464792 C272.075264,29.8655221 272.98835,30.8699167 274.424385,30.8699167 C275.445381,30.8699167 276.200753,30.3552682 276.441475,29.5915963 Z M21.7055728,55.410444 C21.5644595,55.410444 21.1079165,55.3938424 20.975104,55.3689401 L20.975104,53.9163034 C21.1079165,53.9495065 21.4067447,53.9495065 21.5561587,53.9495065 C22.3945376,53.9495065 22.834479,53.6008737 23.1084048,52.7043893 C23.1084048,52.6877878 23.2661197,52.1731393 23.2661197,52.1648385 L20.1118228,43.4241159 L22.0542056,43.4241159 L24.2705142,50.5295846 L24.2954165,50.5295846 L26.5117251,43.4241159 L28.4043033,43.4241159 L25.1254947,52.6130807 C24.3784244,54.7297799 23.5234439,55.410444 21.7055728,55.410444 Z M33.0071314,52.3225534 C30.5085962,52.3225534 28.8650415,50.6042917 28.8650415,47.7903268 C28.8650415,44.9846628 30.516897,43.266401 33.0071314,43.266401 C35.4973658,43.266401 37.1492212,44.9846628 37.1492212,47.7903268 C37.1492212,50.6042917 35.5056665,52.3225534 33.0071314,52.3225534 Z M33.0071314,50.8450143 C34.4182642,50.8450143 35.3230494,49.7327096 35.3230494,47.7903268 C35.3230494,45.8562448 34.4099634,44.7439401 33.0071314,44.7439401 C31.6042994,44.7439401 30.6912134,45.8562448 30.6912134,47.7903268 C30.6912134,49.7327096 31.6042994,50.8450143 33.0071314,50.8450143 Z M46.0767564,43.4241159 L46.0767564,52.1565378 L44.3584947,52.1565378 L44.3584947,50.6789987 L44.3169908,50.6789987 C43.8355454,51.7248971 42.9473619,52.3142526 41.6109361,52.3142526 C39.7100572,52.3142526 38.5479478,51.0774362 38.5479478,49.0769479 L38.5479478,43.4241159 L40.3409165,43.4241159 L40.3409165,48.7283151 C40.3409165,50.0564401 40.9717759,50.7703073 42.2085923,50.7703073 C43.5035142,50.7703073 44.2837876,49.8738229 44.2837876,48.5124948 L44.2837876,43.4241159 L46.0767564,43.4241159 Z M54.4523345,50.8865182 C55.7057525,50.8865182 56.6852447,50.023237 56.6852447,48.8860299 L56.6852447,48.1970651 L54.5353423,48.3298776 C53.4645415,48.4045846 52.8585845,48.8777292 52.8585845,49.6247995 C52.8585845,50.3884713 53.4894439,50.8865182 54.4523345,50.8865182 Z M53.9542876,52.3059518 C52.2443267,52.3059518 51.0490142,51.2434518 51.0490142,49.6746042 C51.0490142,48.1472604 52.2194244,47.2092721 54.2946197,47.0930612 L56.6852447,46.9519479 L56.6852447,46.2795846 C56.6852447,45.3083932 56.029483,44.7273385 54.9337798,44.7273385 C53.8961822,44.7273385 53.2487212,45.2253854 53.0910064,46.0056588 L51.397647,46.0056588 C51.4972564,44.4285104 52.841983,43.266401 55.0001861,43.266401 C57.1168853,43.266401 58.4699126,44.3870065 58.4699126,46.1384713 L58.4699126,52.1565378 L56.7516509,52.1565378 L56.7516509,50.7205026 L56.710147,50.7205026 C56.2037994,51.691694 55.0997955,52.3059518 53.9542876,52.3059518 Z M68.4060376,52.3059518 C67.1277173,52.3059518 66.1399244,51.6833932 65.6003736,50.6706979 L65.5671705,50.6706979 L65.5671705,52.1565378 L63.8240064,52.1565378 L63.8240064,40.1785104 L65.6169751,40.1785104 L65.6169751,44.9099557 L65.658479,44.9099557 C66.1814283,43.8972604 67.177522,43.2830026 68.4143384,43.2830026 C70.6140455,43.2830026 72.0500806,45.0261667 72.0500806,47.7903268 C72.0500806,50.5627878 70.6223462,52.3059518 68.4060376,52.3059518 Z M67.9245923,44.7937448 C66.5632642,44.7937448 65.6086744,45.9890573 65.6086744,47.7903268 C65.6086744,49.6081979 66.5632642,50.7869088 67.9245923,50.7869088 C69.3357251,50.7869088 70.2073072,49.641401 70.2073072,47.7903268 C70.2073072,45.9558542 69.3357251,44.7937448 67.9245923,44.7937448 Z M77.1509556,44.710737 C75.8975376,44.710737 75.0176548,45.6653268 74.9263462,46.985151 L79.2925572,46.985151 C79.2510533,45.6487253 78.4043736,44.710737 77.1509556,44.710737 Z M79.2842564,49.5915963 L80.9859165,49.5915963 C80.7368931,51.1853463 79.2261509,52.3225534 77.2256626,52.3225534 C74.6607212,52.3225534 73.1084751,50.5876901 73.1084751,47.8318307 C73.1084751,45.0925729 74.6856236,43.266401 77.1509556,43.266401 C79.5747837,43.266401 81.0855259,44.976362 81.0855259,47.6243112 L81.0855259,48.238569 L74.9180455,48.238569 L74.9180455,48.3464792 C74.9180455,49.8655221 75.8311314,50.8699167 77.2671665,50.8699167 C78.2881626,50.8699167 79.0435337,50.3552682 79.2842564,49.5915963 Z M83.0487056,41.3572213 L84.8499751,41.3572213 L84.8499751,43.4241159 L86.5101314,43.4241159 L86.5101314,44.8435495 L84.8499751,44.8435495 L84.8499751,49.6580026 C84.8499751,50.4133737 85.1820064,50.7537057 85.9124751,50.7537057 C86.0950923,50.7537057 86.3856197,50.7371042 86.5018306,50.7122018 L86.5018306,52.1316354 C86.3026119,52.1814401 85.9041744,52.2146432 85.5057369,52.2146432 C83.7376705,52.2146432 83.0487056,51.5422799 83.0487056,49.8572213 L83.0487056,44.8435495 L81.7786861,44.8435495 L81.7786861,43.4241159 L83.0487056,43.4241159 L83.0487056,41.3572213 Z M88.5563189,41.3572213 L90.3575884,41.3572213 L90.3575884,43.4241159 L92.0177447,43.4241159 L92.0177447,44.8435495 L90.3575884,44.8435495 L90.3575884,49.6580026 C90.3575884,50.4133737 90.6896197,50.7537057 91.4200884,50.7537057 C91.6027056,50.7537057 91.893233,50.7371042 92.0094439,50.7122018 L92.0094439,52.1316354 C91.8102251,52.1814401 91.4117876,52.2146432 91.0133501,52.2146432 C89.2452837,52.2146432 88.5563189,51.5422799 88.5563189,49.8572213 L88.5563189,44.8435495 L87.2862994,44.8435495 L87.2862994,43.4241159 L88.5563189,43.4241159 L88.5563189,41.3572213 Z M96.9858072,44.710737 C95.7323892,44.710737 94.8525064,45.6653268 94.7611978,46.985151 L99.1274087,46.985151 C99.0859048,45.6487253 98.2392251,44.710737 96.9858072,44.710737 Z M99.119108,49.5915963 L100.820768,49.5915963 C100.571745,51.1853463 99.0610025,52.3225534 97.0605142,52.3225534 C94.4955728,52.3225534 92.9433267,50.5876901 92.9433267,47.8318307 C92.9433267,45.0925729 94.5204751,43.266401 96.9858072,43.266401 C99.4096353,43.266401 100.920377,44.976362 100.920377,47.6243112 L100.920377,48.238569 L94.752897,48.238569 L94.752897,48.3464792 C94.752897,49.8655221 95.665983,50.8699167 97.1020181,50.8699167 C98.1230142,50.8699167 98.8783853,50.3552682 99.119108,49.5915963 Z M102.360608,52.1565378 L102.360608,43.4241159 L104.070569,43.4241159 L104.070569,44.9099557 L104.112073,44.9099557 C104.4026,43.8889596 105.182874,43.2830026 106.21217,43.2830026 C106.469495,43.2830026 106.693616,43.3245065 106.826428,43.3494088 L106.826428,45.0178659 C106.685315,44.9597604 106.369885,44.9182565 106.021252,44.9182565 C104.867444,44.9182565 104.153577,45.6902292 104.153577,46.9270456 L104.153577,52.1565378 L102.360608,52.1565378 Z M116.040385,43.2830026 C118.256694,43.2830026 119.717631,45.0261667 119.717631,47.7903268 C119.717631,50.554487 118.264995,52.3059518 116.073588,52.3059518 C114.82017,52.3059518 113.824077,51.691694 113.32603,50.7205026 L113.284526,50.7205026 L113.284526,55.0452096 L111.491557,55.0452096 L111.491557,43.4241159 L113.22642,43.4241159 L113.22642,44.9265573 L113.259624,44.9265573 C113.774272,43.9221628 114.778667,43.2830026 116.040385,43.2830026 Z M115.567241,50.7869088 C116.986674,50.7869088 117.874858,49.6247995 117.874858,47.7903268 C117.874858,45.9641549 116.986674,44.7937448 115.567241,44.7937448 C114.197612,44.7937448 113.276225,45.9890573 113.276225,47.7903268 C113.276225,49.6081979 114.189311,50.7869088 115.567241,50.7869088 Z M128.636866,43.4241159 L128.636866,52.1565378 L126.918604,52.1565378 L126.918604,50.6789987 L126.8771,50.6789987 C126.395655,51.7248971 125.507471,52.3142526 124.171045,52.3142526 C122.270167,52.3142526 121.108057,51.0774362 121.108057,49.0769479 L121.108057,43.4241159 L122.901026,43.4241159 L122.901026,48.7283151 C122.901026,50.0564401 123.531885,50.7703073 124.768702,50.7703073 C126.063624,50.7703073 126.843897,49.8738229 126.843897,48.5124948 L126.843897,43.4241159 L128.636866,43.4241159 Z M135.10737,52.3059518 C133.829049,52.3059518 132.841256,51.6833932 132.301706,50.6706979 L132.268502,50.6706979 L132.268502,52.1565378 L130.525338,52.1565378 L130.525338,40.1785104 L132.318307,40.1785104 L132.318307,44.9099557 L132.359811,44.9099557 C132.88276,43.8972604 133.878854,43.2830026 135.11567,43.2830026 C137.315377,43.2830026 138.751413,45.0261667 138.751413,47.7903268 C138.751413,50.5627878 137.323678,52.3059518 135.10737,52.3059518 Z M134.625924,44.7937448 C133.264596,44.7937448 132.310006,45.9890573 132.310006,47.7903268 C132.310006,49.6081979 133.264596,50.7869088 134.625924,50.7869088 C136.037057,50.7869088 136.908639,49.641401 136.908639,47.7903268 C136.908639,45.9558542 136.037057,44.7937448 134.625924,44.7937448 Z M140.26635,52.1565378 L140.26635,40.1785104 L142.059319,40.1785104 L142.059319,52.1565378 L140.26635,52.1565378 Z M144.014198,52.1565378 L144.014198,43.4241159 L145.807167,43.4241159 L145.807167,52.1565378 L144.014198,52.1565378 Z M144.910682,42.1457956 C144.337928,42.1457956 143.873085,41.6892526 143.873085,41.1247995 C143.873085,40.5520456 144.337928,40.0955026 144.910682,40.0955026 C145.491737,40.0955026 145.956581,40.5520456 145.956581,41.1247995 C145.956581,41.6892526 145.491737,42.1457956 144.910682,42.1457956 Z M155.191245,46.4289987 L153.481284,46.4289987 C153.298667,45.4993112 152.601401,44.7605417 151.430991,44.7605417 C150.04476,44.7605417 149.131674,45.9143503 149.131674,47.7903268 C149.131674,49.7078073 150.053061,50.820112 151.447592,50.820112 C152.551596,50.820112 153.273764,50.2141549 153.481284,49.2014596 L155.207846,49.2014596 C155.016928,51.0608346 153.531088,52.3225534 151.430991,52.3225534 C148.932456,52.3225534 147.305503,50.6125924 147.305503,47.7903268 C147.305503,45.0178659 148.932456,43.266401 151.414389,43.266401 C153.663901,43.266401 155.03353,44.710737 155.191245,46.4289987 Z M159.872975,45.8977487 C159.872975,44.3372018 161.250905,43.266401 163.292897,43.266401 C165.23528,43.266401 166.596608,44.3538034 166.654713,45.9060495 L164.969655,45.9060495 C164.886647,45.1174753 164.247487,44.6277292 163.243092,44.6277292 C162.271901,44.6277292 161.62444,45.1008737 161.62444,45.7898385 C161.62444,46.3293893 162.056081,46.6946237 162.960866,46.9187448 L164.430104,47.2590768 C166.18987,47.6824167 166.853932,48.3464792 166.853932,49.6331003 C166.853932,51.2268503 165.368092,52.3225534 163.226491,52.3225534 C161.159596,52.3225534 159.789967,51.2517526 159.648854,49.6497018 L161.425221,49.6497018 C161.566335,50.4880807 162.213795,50.9529245 163.309499,50.9529245 C164.3886,50.9529245 165.052663,50.5046823 165.052663,49.7991159 C165.052663,49.2429635 164.720631,48.9358346 163.807545,48.7034128 L162.246999,48.3215768 C160.66985,47.9397409 159.872975,47.1179635 159.872975,45.8977487 Z M172.851292,43.2830026 C175.0676,43.2830026 176.528538,45.0261667 176.528538,47.7903268 C176.528538,50.554487 175.075901,52.3059518 172.884495,52.3059518 C171.631077,52.3059518 170.634983,51.691694 170.136936,50.7205026 L170.095432,50.7205026 L170.095432,55.0452096 L168.302463,55.0452096 L168.302463,43.4241159 L170.037327,43.4241159 L170.037327,44.9265573 L170.07053,44.9265573 C170.585178,43.9221628 171.589573,43.2830026 172.851292,43.2830026 Z M172.378147,50.7869088 C173.797581,50.7869088 174.685764,49.6247995 174.685764,47.7903268 C174.685764,45.9641549 173.797581,44.7937448 172.378147,44.7937448 C171.008518,44.7937448 170.087131,45.9890573 170.087131,47.7903268 C170.087131,49.6081979 171.000217,50.7869088 172.378147,50.7869088 Z M181.612811,44.710737 C180.359393,44.710737 179.47951,45.6653268 179.388202,46.985151 L183.754413,46.985151 C183.712909,45.6487253 182.866229,44.710737 181.612811,44.710737 Z M183.746112,49.5915963 L185.447772,49.5915963 C185.198749,51.1853463 183.688006,52.3225534 181.687518,52.3225534 C179.122577,52.3225534 177.570331,50.5876901 177.570331,47.8318307 C177.570331,45.0925729 179.147479,43.266401 181.612811,43.266401 C184.036639,43.266401 185.547381,44.976362 185.547381,47.6243112 L185.547381,48.238569 L179.379901,48.238569 L179.379901,48.3464792 C179.379901,49.8655221 180.292987,50.8699167 181.729022,50.8699167 C182.750018,50.8699167 183.505389,50.3552682 183.746112,49.5915963 Z M190.042299,50.8865182 C191.295717,50.8865182 192.27521,50.023237 192.27521,48.8860299 L192.27521,48.1970651 L190.125307,48.3298776 C189.054506,48.4045846 188.448549,48.8777292 188.448549,49.6247995 C188.448549,50.3884713 189.079409,50.8865182 190.042299,50.8865182 Z M189.544253,52.3059518 C187.834292,52.3059518 186.638979,51.2434518 186.638979,49.6746042 C186.638979,48.1472604 187.809389,47.2092721 189.884585,47.0930612 L192.27521,46.9519479 L192.27521,46.2795846 C192.27521,45.3083932 191.619448,44.7273385 190.523745,44.7273385 C189.486147,44.7273385 188.838686,45.2253854 188.680971,46.0056588 L186.987612,46.0056588 C187.087221,44.4285104 188.431948,43.266401 190.590151,43.266401 C192.70685,43.266401 194.059878,44.3870065 194.059878,46.1384713 L194.059878,52.1565378 L192.341616,52.1565378 L192.341616,50.7205026 L192.300112,50.7205026 C191.793764,51.691694 190.68976,52.3059518 189.544253,52.3059518 Z M197.724717,47.1677682 L201.252549,43.4241159 L203.360948,43.4241159 L199.741807,47.1843698 L203.502061,52.1565378 L201.418565,52.1565378 L198.455186,48.2800729 L197.708116,49.0188424 L197.708116,52.1565378 L195.915147,52.1565378 L195.915147,40.1785104 L197.708116,40.1785104 L197.708116,47.1677682 L197.724717,47.1677682 Z M207.714753,44.710737 C206.461335,44.710737 205.581452,45.6653268 205.490143,46.985151 L209.856354,46.985151 C209.81485,45.6487253 208.96817,44.710737 207.714753,44.710737 Z M209.848053,49.5915963 L211.549713,49.5915963 C211.30069,51.1853463 209.789948,52.3225534 207.78946,52.3225534 C205.224518,52.3225534 203.672272,50.5876901 203.672272,47.8318307 C203.672272,45.0925729 205.24942,43.266401 207.714753,43.266401 C210.138581,43.266401 211.649323,44.976362 211.649323,47.6243112 L211.649323,48.238569 L205.481842,48.238569 L205.481842,48.3464792 C205.481842,49.8655221 206.394928,50.8699167 207.830963,50.8699167 C208.85196,50.8699167 209.607331,50.3552682 209.848053,49.5915963 Z M213.089553,52.1565378 L213.089553,43.4241159 L214.799514,43.4241159 L214.799514,44.9099557 L214.841018,44.9099557 C215.131545,43.8889596 215.911819,43.2830026 216.941116,43.2830026 C217.19844,43.2830026 217.422561,43.3245065 217.555374,43.3494088 L217.555374,45.0178659 C217.41426,44.9597604 217.098831,44.9182565 216.750198,44.9182565 C215.596389,44.9182565 214.882522,45.6902292 214.882522,46.9270456 L214.882522,52.1565378 L213.089553,52.1565378 Z M219.327635,40.1785104 L221.17871,40.1785104 L221.045897,48.1887643 L219.460448,48.1887643 L219.327635,40.1785104 Z M220.249022,52.2810495 C219.643065,52.2810495 219.16162,51.8162057 219.16162,51.2102487 C219.16162,50.6042917 219.643065,50.1394479 220.249022,50.1394479 C220.871581,50.1394479 221.344725,50.6042917 221.344725,51.2102487 C221.344725,51.8162057 220.871581,52.2810495 220.249022,52.2810495 Z" id="I’m-Talky-and-my-mis" fill="#6E6E6E"></path>
                            </g>
                            <g id="Group-2-Copy" stroke-width="1" fill-rule="evenodd" transform="translate(30.029297, 337.237569)">
                                <path d="M26.9207946,-1.08763232e-15 L278.377057,1.08763232e-15 C287.738004,-6.31945701e-16 291.132509,0.974668917 294.554731,2.80489339 C297.976954,4.63511786 300.662734,7.32089789 302.492958,10.7431201 C304.323183,14.1653423 305.297852,17.5598478 305.297852,26.9207946 L305.297852,54.3775479 C305.297852,63.7384947 304.323183,67.1330002 302.492958,70.5552224 C300.662734,73.9774447 297.976954,76.6632247 294.554731,78.4934492 C291.132509,80.3236736 287.738004,81.2983425 278.377057,81.2983425 L26.9207946,81.2983425 C17.5598478,81.2983425 14.1653423,80.3236736 10.7431201,78.4934492 C7.32089789,76.6632247 4.63511786,73.9774447 2.80489339,70.5552224 C0.974668917,67.1330002 4.21297134e-16,63.7384947 -7.25088215e-16,54.3775479 L7.25088215e-16,26.9207946 C-4.21297134e-16,17.5598478 0.974668917,14.1653423 2.80489339,10.7431201 C4.63511786,7.32089789 7.32089789,4.63511786 10.7431201,2.80489339 C14.1653423,0.974668917 17.5598478,6.31945701e-16 26.9207946,-1.08763232e-15 Z" id="Combined-Shape" stroke="#D3D3D3" stroke-width="0.5" fill="#FFFFFF"></path>
                                <path d="M28.8608462,32.1565378 L27.7651431,28.9192331 L23.1997134,28.9192331 L22.1040103,32.1565378 L20.1699283,32.1565378 L24.4946353,20.1785104 L26.5034244,20.1785104 L30.8281314,32.1565378 L28.8608462,32.1565378 Z M25.4575259,22.1706979 L23.6728579,27.4250924 L27.2919986,27.4250924 L25.5073306,22.1706979 L25.4575259,22.1706979 Z M42.8684595,23.4241159 L40.4778345,32.1565378 L38.6101587,32.1565378 L36.7756861,25.6155221 L36.7341822,25.6155221 L34.9163111,32.1565378 L33.0652369,32.1565378 L30.6663111,23.4241159 L32.4592798,23.4241159 L34.0530298,30.2971628 L34.0862329,30.2971628 L35.904104,23.4241159 L37.6306665,23.4241159 L39.4568384,30.2971628 L39.4983423,30.2971628 L41.0920923,23.4241159 L42.8684595,23.4241159 Z M47.6290025,24.710737 C46.3755845,24.710737 45.4957017,25.6653268 45.4043931,26.985151 L49.770604,26.985151 C49.7291001,25.6487253 48.8824204,24.710737 47.6290025,24.710737 Z M49.7623033,29.5915963 L51.4639634,29.5915963 C51.21494,31.1853463 49.7041978,32.3225534 47.7037095,32.3225534 C45.1387681,32.3225534 43.586522,30.5876901 43.586522,27.8318307 C43.586522,25.0925729 45.1636704,23.266401 47.6290025,23.266401 C50.0528306,23.266401 51.5635728,24.976362 51.5635728,27.6243112 L51.5635728,28.238569 L45.3960923,28.238569 L45.3960923,28.3464792 C45.3960923,29.8655221 46.3091783,30.8699167 47.7452134,30.8699167 C48.7662095,30.8699167 49.5215806,30.3552682 49.7623033,29.5915963 Z M52.8460884,25.8977487 C52.8460884,24.3372018 54.2240181,23.266401 56.2660103,23.266401 C58.2083931,23.266401 59.5697212,24.3538034 59.6278267,25.9060495 L57.9427681,25.9060495 C57.8597603,25.1174753 57.2206001,24.6277292 56.2162056,24.6277292 C55.2450142,24.6277292 54.5975533,25.1008737 54.5975533,25.7898385 C54.5975533,26.3293893 55.0291939,26.6946237 55.933979,26.9187448 L57.4032173,27.2590768 C59.1629829,27.6824167 59.8270454,28.3464792 59.8270454,29.6331003 C59.8270454,31.2268503 58.3412056,32.3225534 56.199604,32.3225534 C54.1327095,32.3225534 52.7630806,31.2517526 52.6219673,29.6497018 L54.3983345,29.6497018 C54.5394478,30.4880807 55.1869087,30.9529245 56.2826119,30.9529245 C57.3617134,30.9529245 58.0257759,30.5046823 58.0257759,29.7991159 C58.0257759,29.2429635 57.6937447,28.9358346 56.7806587,28.7034128 L55.2201119,28.3215768 C53.6429634,27.9397409 52.8460884,27.1179635 52.8460884,25.8977487 Z M65.0275298,32.3225534 C62.5289947,32.3225534 60.88544,30.6042917 60.88544,27.7903268 C60.88544,24.9846628 62.5372955,23.266401 65.0275298,23.266401 C67.5177642,23.266401 69.1696197,24.9846628 69.1696197,27.7903268 C69.1696197,30.6042917 67.526065,32.3225534 65.0275298,32.3225534 Z M65.0275298,30.8450143 C66.4386626,30.8450143 67.3434478,29.7327096 67.3434478,27.7903268 C67.3434478,25.8562448 66.4303619,24.7439401 65.0275298,24.7439401 C63.6246978,24.7439401 62.7116119,25.8562448 62.7116119,27.7903268 C62.7116119,29.7327096 63.6246978,30.8450143 65.0275298,30.8450143 Z M70.6098501,32.1565378 L70.6098501,23.4241159 L72.3198111,23.4241159 L72.3198111,24.8933542 L72.361315,24.8933542 C72.7514517,23.9221628 73.6645376,23.2747018 74.8432486,23.2747018 C76.0551626,23.2747018 76.9350455,23.8972604 77.2836783,24.9846628 L77.3251822,24.9846628 C77.7734244,23.9221628 78.8027212,23.2747018 80.0478384,23.2747018 C81.7744009,23.2747018 82.9033072,24.4202096 82.9033072,26.1550729 L82.9033072,32.1565378 L81.1020376,32.1565378 L81.1020376,26.5867135 C81.1020376,25.4578073 80.4960806,24.8103463 79.4335806,24.8103463 C78.3710806,24.8103463 77.6323111,25.5989206 77.6323111,26.7029245 L77.6323111,32.1565378 L75.8725455,32.1565378 L75.8725455,26.453901 C75.8725455,25.4495065 75.2333853,24.8103463 74.22069,24.8103463 C73.15819,24.8103463 72.4028189,25.6404245 72.4028189,26.7610299 L72.4028189,32.1565378 L70.6098501,32.1565378 Z M88.3362134,24.710737 C87.0827955,24.710737 86.2029126,25.6653268 86.111604,26.985151 L90.477815,26.985151 C90.4363111,25.6487253 89.5896314,24.710737 88.3362134,24.710737 Z M90.4695142,29.5915963 L92.1711744,29.5915963 C91.9221509,31.1853463 90.4114087,32.3225534 88.4109205,32.3225534 C85.845979,32.3225534 84.293733,30.5876901 84.293733,27.8318307 C84.293733,25.0925729 85.8708814,23.266401 88.3362134,23.266401 C90.7600415,23.266401 92.2707837,24.976362 92.2707837,27.6243112 L92.2707837,28.238569 L86.1033033,28.238569 L86.1033033,28.3464792 C86.1033033,29.8655221 87.0163892,30.8699167 88.4524244,30.8699167 C89.4734205,30.8699167 90.2287915,30.3552682 90.4695142,29.5915963 Z M94.3169712,20.1785104 L96.1680455,20.1785104 L96.035233,28.1887643 L94.4497837,28.1887643 L94.3169712,20.1785104 Z M95.238358,32.2810495 C94.6324009,32.2810495 94.1509556,31.8162057 94.1509556,31.2102487 C94.1509556,30.6042917 94.6324009,30.1394479 95.238358,30.1394479 C95.8609165,30.1394479 96.3340611,30.6042917 96.3340611,31.2102487 C96.3340611,31.8162057 95.8609165,32.2810495 95.238358,32.2810495 Z M104.178389,32.1565378 L102.319014,32.1565378 L102.319014,20.1785104 L104.178389,20.1785104 L104.178389,32.1565378 Z M121.244885,23.4241159 L118.85426,32.1565378 L116.986585,32.1565378 L115.152112,25.6155221 L115.110608,25.6155221 L113.292737,32.1565378 L111.441663,32.1565378 L109.042737,23.4241159 L110.835706,23.4241159 L112.429456,30.2971628 L112.462659,30.2971628 L114.28053,23.4241159 L116.007092,23.4241159 L117.833264,30.2971628 L117.874768,30.2971628 L119.468518,23.4241159 L121.244885,23.4241159 Z M122.452694,32.1565378 L122.452694,23.4241159 L124.245663,23.4241159 L124.245663,32.1565378 L122.452694,32.1565378 Z M123.349178,22.1457956 C122.776424,22.1457956 122.311581,21.6892526 122.311581,21.1247995 C122.311581,20.5520456 122.776424,20.0955026 123.349178,20.0955026 C123.930233,20.0955026 124.395077,20.5520456 124.395077,21.1247995 C124.395077,21.6892526 123.930233,22.1457956 123.349178,22.1457956 Z M126.200542,32.1565378 L126.200542,20.1785104 L127.99351,20.1785104 L127.99351,32.1565378 L126.200542,32.1565378 Z M129.95669,32.1565378 L129.95669,20.1785104 L131.749659,20.1785104 L131.749659,32.1565378 L129.95669,32.1565378 Z M136.987542,25.8977487 C136.987542,24.3372018 138.365471,23.266401 140.407463,23.266401 C142.349846,23.266401 143.711174,24.3538034 143.76928,25.9060495 L142.084221,25.9060495 C142.001213,25.1174753 141.362053,24.6277292 140.357659,24.6277292 C139.386467,24.6277292 138.739006,25.1008737 138.739006,25.7898385 C138.739006,26.3293893 139.170647,26.6946237 140.075432,26.9187448 L141.54467,27.2590768 C143.304436,27.6824167 143.968499,28.3464792 143.968499,29.6331003 C143.968499,31.2268503 142.482659,32.3225534 140.341057,32.3225534 C138.274163,32.3225534 136.904534,31.2517526 136.76342,29.6497018 L138.539788,29.6497018 C138.680901,30.4880807 139.328362,30.9529245 140.424065,30.9529245 C141.503167,30.9529245 142.167229,30.5046823 142.167229,29.7991159 C142.167229,29.2429635 141.835198,28.9358346 140.922112,28.7034128 L139.361565,28.3215768 C137.784417,27.9397409 136.987542,27.1179635 136.987542,25.8977487 Z M145.939979,21.3572213 L147.741249,21.3572213 L147.741249,23.4241159 L149.401405,23.4241159 L149.401405,24.8435495 L147.741249,24.8435495 L147.741249,29.6580026 C147.741249,30.4133737 148.07328,30.7537057 148.803749,30.7537057 C148.986366,30.7537057 149.276893,30.7371042 149.393104,30.7122018 L149.393104,32.1316354 C149.193885,32.1814401 148.795448,32.2146432 148.39701,32.2146432 C146.628944,32.2146432 145.939979,31.5422799 145.939979,29.8572213 L145.939979,24.8435495 L144.66996,24.8435495 L144.66996,23.4241159 L145.939979,23.4241159 L145.939979,21.3572213 Z M153.846518,30.8865182 C155.099936,30.8865182 156.079428,30.023237 156.079428,28.8860299 L156.079428,28.1970651 L153.929526,28.3298776 C152.858725,28.4045846 152.252768,28.8777292 152.252768,29.6247995 C152.252768,30.3884713 152.883628,30.8865182 153.846518,30.8865182 Z M153.348471,32.3059518 C151.63851,32.3059518 150.443198,31.2434518 150.443198,29.6746042 C150.443198,28.1472604 151.613608,27.2092721 153.688803,27.0930612 L156.079428,26.9519479 L156.079428,26.2795846 C156.079428,25.3083932 155.423667,24.7273385 154.327963,24.7273385 C153.290366,24.7273385 152.642905,25.2253854 152.48519,26.0056588 L150.791831,26.0056588 C150.89144,24.4285104 152.236167,23.266401 154.39437,23.266401 C156.511069,23.266401 157.864096,24.3870065 157.864096,26.1384713 L157.864096,32.1565378 L156.145835,32.1565378 L156.145835,30.7205026 L156.104331,30.7205026 C155.597983,31.691694 154.493979,32.3059518 153.348471,32.3059518 Z M159.65296,32.1565378 L159.65296,23.4241159 L161.36292,23.4241159 L161.36292,24.9099557 L161.404424,24.9099557 C161.694952,23.8889596 162.475225,23.2830026 163.504522,23.2830026 C163.761846,23.2830026 163.985967,23.3245065 164.11878,23.3494088 L164.11878,25.0178659 C163.977667,24.9597604 163.662237,24.9182565 163.313604,24.9182565 C162.159795,24.9182565 161.445928,25.6902292 161.445928,26.9270456 L161.445928,32.1565378 L159.65296,32.1565378 Z M165.808034,21.3572213 L167.609303,21.3572213 L167.609303,23.4241159 L169.26946,23.4241159 L169.26946,24.8435495 L167.609303,24.8435495 L167.609303,29.6580026 C167.609303,30.4133737 167.941335,30.7537057 168.671803,30.7537057 C168.85442,30.7537057 169.144948,30.7371042 169.261159,30.7122018 L169.261159,32.1316354 C169.06194,32.1814401 168.663503,32.2146432 168.265065,32.2146432 C166.496999,32.2146432 165.808034,31.5422799 165.808034,29.8572213 L165.808034,24.8435495 L164.538014,24.8435495 L164.538014,23.4241159 L165.808034,23.4241159 L165.808034,21.3572213 Z M177.34621,30.8865182 C178.599628,30.8865182 179.57912,30.023237 179.57912,28.8860299 L179.57912,28.1970651 L177.429217,28.3298776 C176.358417,28.4045846 175.75246,28.8777292 175.75246,29.6247995 C175.75246,30.3884713 176.383319,30.8865182 177.34621,30.8865182 Z M176.848163,32.3059518 C175.138202,32.3059518 173.942889,31.2434518 173.942889,29.6746042 C173.942889,28.1472604 175.113299,27.2092721 177.188495,27.0930612 L179.57912,26.9519479 L179.57912,26.2795846 C179.57912,25.3083932 178.923358,24.7273385 177.827655,24.7273385 C176.790057,24.7273385 176.142596,25.2253854 175.984881,26.0056588 L174.291522,26.0056588 C174.391131,24.4285104 175.735858,23.266401 177.894061,23.266401 C180.01076,23.266401 181.363788,24.3870065 181.363788,26.1384713 L181.363788,32.1565378 L179.645526,32.1565378 L179.645526,30.7205026 L179.604022,30.7205026 C179.097674,31.691694 177.99367,32.3059518 176.848163,32.3059518 Z M183.152651,32.1565378 L183.152651,23.4241159 L184.862612,23.4241159 L184.862612,24.8850534 L184.904116,24.8850534 C185.37726,23.8889596 186.306948,23.2747018 187.651674,23.2747018 C189.577456,23.2747018 190.68146,24.5032174 190.68146,26.5037057 L190.68146,32.1565378 L188.88019,32.1565378 L188.88019,26.8523385 C188.88019,25.5408151 188.265932,24.8186471 187.020815,24.8186471 C185.759096,24.8186471 184.94562,25.7151315 184.94562,27.0681588 L184.94562,32.1565378 L183.152651,32.1565378 Z M195.51671,30.8865182 C196.770128,30.8865182 197.74962,30.023237 197.74962,28.8860299 L197.74962,28.1970651 L195.599717,28.3298776 C194.528917,28.4045846 193.92296,28.8777292 193.92296,29.6247995 C193.92296,30.3884713 194.553819,30.8865182 195.51671,30.8865182 Z M195.018663,32.3059518 C193.308702,32.3059518 192.113389,31.2434518 192.113389,29.6746042 C192.113389,28.1472604 193.283799,27.2092721 195.358995,27.0930612 L197.74962,26.9519479 L197.74962,26.2795846 C197.74962,25.3083932 197.093858,24.7273385 195.998155,24.7273385 C194.960557,24.7273385 194.313096,25.2253854 194.155381,26.0056588 L192.462022,26.0056588 C192.561631,24.4285104 193.906358,23.266401 196.064561,23.266401 C198.18126,23.266401 199.534288,24.3870065 199.534288,26.1384713 L199.534288,32.1565378 L197.816026,32.1565378 L197.816026,30.7205026 L197.774522,30.7205026 C197.268174,31.691694 196.16417,32.3059518 195.018663,32.3059518 Z M201.389557,32.1565378 L201.389557,20.1785104 L203.182526,20.1785104 L203.182526,32.1565378 L201.389557,32.1565378 Z M205.942581,35.410444 C205.801467,35.410444 205.344924,35.3938424 205.212112,35.3689401 L205.212112,33.9163034 C205.344924,33.9495065 205.643753,33.9495065 205.793167,33.9495065 C206.631545,33.9495065 207.071487,33.6008737 207.345413,32.7043893 C207.345413,32.6877878 207.503128,32.1731393 207.503128,32.1648385 L204.348831,23.4241159 L206.291213,23.4241159 L208.507522,30.5295846 L208.532424,30.5295846 L210.748733,23.4241159 L212.641311,23.4241159 L209.362503,32.6130807 C208.615432,34.7297799 207.760452,35.410444 205.942581,35.410444 Z M213.558592,32.1565378 L213.558592,31.0027292 L218.215331,24.8850534 L218.215331,24.8518503 L213.591795,24.8518503 L213.591795,23.4241159 L220.273924,23.4241159 L220.273924,24.6526315 L215.733397,30.6956003 L215.733397,30.7288034 L220.323729,30.7288034 L220.323729,32.1565378 L213.558592,32.1565378 Z M222.037885,32.1565378 L222.037885,23.4241159 L223.830854,23.4241159 L223.830854,32.1565378 L222.037885,32.1565378 Z M222.93437,22.1457956 C222.361616,22.1457956 221.896772,21.6892526 221.896772,21.1247995 C221.896772,20.5520456 222.361616,20.0955026 222.93437,20.0955026 C223.515424,20.0955026 223.980268,20.5520456 223.980268,21.1247995 C223.980268,21.6892526 223.515424,22.1457956 222.93437,22.1457956 Z M225.719327,32.1565378 L225.719327,23.4241159 L227.429288,23.4241159 L227.429288,24.8850534 L227.470792,24.8850534 C227.943936,23.8889596 228.873624,23.2747018 230.21835,23.2747018 C232.144131,23.2747018 233.248135,24.5032174 233.248135,26.5037057 L233.248135,32.1565378 L231.446866,32.1565378 L231.446866,26.8523385 C231.446866,25.5408151 230.832608,24.8186471 229.587491,24.8186471 C228.325772,24.8186471 227.512295,25.7151315 227.512295,27.0681588 L227.512295,32.1565378 L225.719327,32.1565378 Z M238.747448,30.703901 C240.15028,30.703901 241.071667,29.566694 241.071667,27.7654245 C241.071667,25.9724557 240.15028,24.7937448 238.747448,24.7937448 C237.369518,24.7937448 236.473034,25.9475534 236.473034,27.7654245 C236.473034,29.5915963 237.369518,30.703901 238.747448,30.703901 Z M238.764049,35.4436471 C236.705456,35.4436471 235.178112,34.347944 234.953991,32.8372018 L236.75526,32.8372018 C237.012585,33.5676706 237.80946,34.0491159 238.830456,34.0491159 C240.233288,34.0491159 241.063366,33.2522409 241.063366,32.0569284 L241.063366,30.6208932 L241.030163,30.6208932 C240.540417,31.5671823 239.51112,32.1897409 238.266003,32.1897409 C236.074596,32.1897409 234.638561,30.4797799 234.638561,27.7571237 C234.638561,25.0095651 236.066295,23.2830026 238.307506,23.2830026 C239.544323,23.2830026 240.557018,23.9055612 241.088268,24.9182565 L241.121471,24.9182565 L241.121471,23.4241159 L242.864635,23.4241159 L242.864635,31.9988229 C242.864635,34.082319 241.254284,35.4436471 238.764049,35.4436471 Z M249.048807,35.410444 C248.907694,35.410444 248.451151,35.3938424 248.318338,35.3689401 L248.318338,33.9163034 C248.451151,33.9495065 248.749979,33.9495065 248.899393,33.9495065 C249.737772,33.9495065 250.177713,33.6008737 250.451639,32.7043893 C250.451639,32.6877878 250.609354,32.1731393 250.609354,32.1648385 L247.455057,23.4241159 L249.39744,23.4241159 L251.613749,30.5295846 L251.638651,30.5295846 L253.85496,23.4241159 L255.747538,23.4241159 L252.468729,32.6130807 C251.721659,34.7297799 250.866678,35.410444 249.048807,35.410444 Z M260.350366,32.3225534 C257.851831,32.3225534 256.208276,30.6042917 256.208276,27.7903268 C256.208276,24.9846628 257.860131,23.266401 260.350366,23.266401 C262.8406,23.266401 264.492456,24.9846628 264.492456,27.7903268 C264.492456,30.6042917 262.848901,32.3225534 260.350366,32.3225534 Z M260.350366,30.8450143 C261.761499,30.8450143 262.666284,29.7327096 262.666284,27.7903268 C262.666284,25.8562448 261.753198,24.7439401 260.350366,24.7439401 C258.947534,24.7439401 258.034448,25.8562448 258.034448,27.7903268 C258.034448,29.7327096 258.947534,30.8450143 260.350366,30.8450143 Z M273.419991,23.4241159 L273.419991,32.1565378 L271.701729,32.1565378 L271.701729,30.6789987 L271.660225,30.6789987 C271.17878,31.7248971 270.290596,32.3142526 268.95417,32.3142526 C267.053292,32.3142526 265.891182,31.0774362 265.891182,29.0769479 L265.891182,23.4241159 L267.684151,23.4241159 L267.684151,28.7283151 C267.684151,30.0564401 268.31501,30.7703073 269.551827,30.7703073 C270.846749,30.7703073 271.627022,29.8738229 271.627022,28.5124948 L271.627022,23.4241159 L273.419991,23.4241159 Z M275.242057,32.1565378 L275.242057,23.4241159 L276.952018,23.4241159 L276.952018,24.9099557 L276.993522,24.9099557 C277.284049,23.8889596 278.064323,23.2830026 279.09362,23.2830026 C279.350944,23.2830026 279.575065,23.3245065 279.707878,23.3494088 L279.707878,25.0178659 C279.566764,24.9597604 279.251335,24.9182565 278.902702,24.9182565 C277.748893,24.9182565 277.035026,25.6902292 277.035026,26.9270456 L277.035026,32.1565378 L275.242057,32.1565378 Z M20.6845767,45.8977487 C20.6845767,44.3372018 22.0625064,43.266401 24.1044986,43.266401 C26.0468814,43.266401 27.4082095,44.3538034 27.466315,45.9060495 L25.7812564,45.9060495 C25.6982486,45.1174753 25.0590884,44.6277292 24.0546939,44.6277292 C23.0835025,44.6277292 22.4360415,45.1008737 22.4360415,45.7898385 C22.4360415,46.3293893 22.8676822,46.6946237 23.7724673,46.9187448 L25.2417056,47.2590768 C27.0014712,47.6824167 27.6655337,48.3464792 27.6655337,49.6331003 C27.6655337,51.2268503 26.1796939,52.3225534 24.0380923,52.3225534 C21.9711978,52.3225534 20.6015689,51.2517526 20.4604556,49.6497018 L22.2368228,49.6497018 C22.3779361,50.4880807 23.025397,50.9529245 24.1211001,50.9529245 C25.2002017,50.9529245 25.8642642,50.5046823 25.8642642,49.7991159 C25.8642642,49.2429635 25.5322329,48.9358346 24.619147,48.7034128 L23.0586001,48.3215768 C21.4814517,47.9397409 20.6845767,47.1179635 20.6845767,45.8977487 Z M33.6628931,43.2830026 C35.8792017,43.2830026 37.3401392,45.0261667 37.3401392,47.7903268 C37.3401392,50.554487 35.8875025,52.3059518 33.6960962,52.3059518 C32.4426783,52.3059518 31.4465845,51.691694 30.9485376,50.7205026 L30.9070337,50.7205026 L30.9070337,55.0452096 L29.114065,55.0452096 L29.114065,43.4241159 L30.8489283,43.4241159 L30.8489283,44.9265573 L30.8821314,44.9265573 C31.3967798,43.9221628 32.4011744,43.2830026 33.6628931,43.2830026 Z M33.1897486,50.7869088 C34.6091822,50.7869088 35.4973658,49.6247995 35.4973658,47.7903268 C35.4973658,45.9641549 34.6091822,44.7937448 33.1897486,44.7937448 C31.8201197,44.7937448 30.8987329,45.9890573 30.8987329,47.7903268 C30.8987329,49.6081979 31.8118189,50.7869088 33.1897486,50.7869088 Z M42.4244126,44.710737 C41.1709947,44.710737 40.2911119,45.6653268 40.1998033,46.985151 L44.5660142,46.985151 C44.5245103,45.6487253 43.6778306,44.710737 42.4244126,44.710737 Z M44.5577134,49.5915963 L46.2593736,49.5915963 C46.0103501,51.1853463 44.4996079,52.3225534 42.4991197,52.3225534 C39.9341783,52.3225534 38.3819322,50.5876901 38.3819322,47.8318307 C38.3819322,45.0925729 39.9590806,43.266401 42.4244126,43.266401 C44.8482408,43.266401 46.3589829,44.976362 46.3589829,47.6243112 L46.3589829,48.238569 L40.1915025,48.238569 L40.1915025,48.3464792 C40.1915025,49.8655221 41.1045884,50.8699167 42.5406236,50.8699167 C43.5616197,50.8699167 44.3169908,50.3552682 44.5577134,49.5915963 Z M51.4515572,44.710737 C50.1981392,44.710737 49.3182564,45.6653268 49.2269478,46.985151 L53.5931587,46.985151 C53.5516548,45.6487253 52.7049751,44.710737 51.4515572,44.710737 Z M53.5848579,49.5915963 L55.2865181,49.5915963 C55.0374947,51.1853463 53.5267525,52.3225534 51.5262642,52.3225534 C48.9613228,52.3225534 47.4090767,50.5876901 47.4090767,47.8318307 C47.4090767,45.0925729 48.9862251,43.266401 51.4515572,43.266401 C53.8753853,43.266401 55.3861275,44.976362 55.3861275,47.6243112 L55.3861275,48.238569 L49.218647,48.238569 L49.218647,48.3464792 C49.218647,49.8655221 50.1317329,50.8699167 51.5677681,50.8699167 C52.5887642,50.8699167 53.3441353,50.3552682 53.5848579,49.5915963 Z M64.3219634,46.4289987 L62.6120025,46.4289987 C62.4293853,45.4993112 61.7321197,44.7605417 60.5617095,44.7605417 C59.175479,44.7605417 58.2623931,45.9143503 58.2623931,47.7903268 C58.2623931,49.7078073 59.1837798,50.820112 60.5783111,50.820112 C61.682315,50.820112 62.404483,50.2141549 62.6120025,49.2014596 L64.338565,49.2014596 C64.147647,51.0608346 62.6618072,52.3225534 60.5617095,52.3225534 C58.0631744,52.3225534 56.4362212,50.6125924 56.4362212,47.7903268 C56.4362212,45.0178659 58.0631744,43.266401 60.545108,43.266401 C62.7946197,43.266401 64.1642486,44.710737 64.3219634,46.4289987 Z M65.7289908,52.1565378 L65.7289908,40.1785104 L67.505358,40.1785104 L67.505358,44.8850534 L67.5468619,44.8850534 C68.0283072,43.8640573 68.982897,43.2747018 70.311022,43.2747018 C72.2285025,43.2747018 73.3740103,44.5530221 73.3740103,46.5286081 L73.3740103,52.1565378 L71.5727408,52.1565378 L71.5727408,46.8772409 C71.5727408,45.5906198 70.9252798,44.8186471 69.6635611,44.8186471 C68.3354361,44.8186471 67.5219595,45.7317331 67.5219595,47.1096628 L67.5219595,52.1565378 L65.7289908,52.1565378 Z M76.4992994,52.2478463 C75.8933423,52.2478463 75.411897,51.766401 75.411897,51.160444 C75.411897,50.554487 75.8933423,50.0730417 76.4992994,50.0730417 C77.1052564,50.0730417 77.5867017,50.554487 77.5867017,51.160444 C77.5867017,51.766401 77.1052564,52.2478463 76.4992994,52.2478463 Z" id="Awesome!-I-will-star" fill="#6E6E6E"></path>
                            </g>
                            <g id="Group-2-Copy-2" stroke-width="1" fill-rule="evenodd" transform="translate(30.029297, 215.791897)">
                                <path d="M26.9207946,2.46508136e-15 L278.377057,4.640346e-15 C287.738004,2.92076798e-15 291.132509,0.974668917 294.554731,2.80489339 C297.976954,4.63511786 300.662734,7.32089789 302.492958,10.7431201 C304.323183,14.1653423 305.297852,17.5598478 305.297852,26.9207946 L305.297852,84.4880452 C305.297852,93.8489919 304.323183,97.2434974 302.492958,100.66572 C300.662734,104.087942 297.976954,106.773722 294.554731,108.603946 C291.132509,110.434171 287.738004,111.40884 278.377057,111.40884 L26.9207946,111.40884 C17.5598478,111.40884 14.1653423,110.434171 10.7431201,108.603946 C7.32089789,106.773722 4.63511786,104.087942 2.80489339,100.66572 C0.974668917,97.2434974 4.21297134e-16,93.8489919 -7.25088215e-16,84.4880452 L7.25088215e-16,26.9207946 C-4.21297134e-16,17.5598478 0.974668917,14.1653423 2.80489339,10.7431201 C4.63511786,7.32089789 7.32089789,4.63511786 10.7431201,2.80489339 C14.1653423,0.974668917 17.5598478,4.18465938e-15 26.9207946,2.46508136e-15 Z" id="Combined-Shape" stroke="#D3D3D3" stroke-width="0.5" fill="#FFFFFF"></path>
                                <g id="Rectangle-4">
                                    <use fill="#FFFEFE" fill-rule="evenodd" xlink:href="#path-6"></use>
                                    <rect stroke="#D8D8D8" stroke-width="1" x="20.5195312" y="55.7025783" width="118.724648" height="40.1510129" rx="7"></rect>
                                </g>
                                <g id="Rectangle-4-Copy">
                                    <use fill="#FFFEFE" fill-rule="evenodd" xlink:href="#path-7"></use>
                                    <rect stroke="#D8D8D8" stroke-width="1" x="157.65332" y="55.7025783" width="118.724648" height="40.1510129" rx="7"></rect>
                                </g>
                                <path d="M30.9931641,32.1031308 L29.1337891,32.1031308 L29.1337891,26.7989315 L22.9829102,26.7989315 L22.9829102,32.1031308 L21.1235352,32.1031308 L21.1235352,20.1251034 L22.9829102,20.1251034 L22.9829102,25.18858 L29.1337891,25.18858 L29.1337891,20.1251034 L30.9931641,20.1251034 L30.9931641,32.1031308 Z M33.0891563,32.1031308 L33.0891563,23.3707089 L34.882125,23.3707089 L34.882125,32.1031308 L33.0891563,32.1031308 Z M33.9856406,22.0923886 C33.4128867,22.0923886 32.948043,21.6358456 32.948043,21.0713925 C32.948043,20.4986386 33.4128867,20.0420956 33.9856406,20.0420956 C34.5666953,20.0420956 35.0315391,20.4986386 35.0315391,21.0713925 C35.0315391,21.6358456 34.5666953,22.0923886 33.9856406,22.0923886 Z M37.2935469,21.3038143 L39.0948164,21.3038143 L39.0948164,23.3707089 L40.7549727,23.3707089 L40.7549727,24.7901425 L39.0948164,24.7901425 L39.0948164,29.6045956 C39.0948164,30.3599667 39.4268477,30.7002987 40.1573164,30.7002987 C40.3399336,30.7002987 40.6304609,30.6836972 40.7466719,30.6587948 L40.7466719,32.0782284 C40.5474531,32.1280331 40.1490156,32.1612362 39.7505781,32.1612362 C37.9825117,32.1612362 37.2935469,31.4888729 37.2935469,29.8038143 L37.2935469,24.7901425 L36.0235273,24.7901425 L36.0235273,23.3707089 L37.2935469,23.3707089 L37.2935469,21.3038143 Z M45.7770352,32.1031308 L45.7770352,23.3707089 L47.4869961,23.3707089 L47.4869961,24.8565487 L47.5285,24.8565487 C47.8190273,23.8355526 48.5993008,23.2295956 49.6285977,23.2295956 C49.8859219,23.2295956 50.110043,23.2710995 50.2428555,23.2960018 L50.2428555,24.9644589 C50.1017422,24.9063534 49.7863125,24.8648495 49.4376797,24.8648495 C48.2838711,24.8648495 47.5700039,25.6368222 47.5700039,26.8736386 L47.5700039,32.1031308 L45.7770352,32.1031308 Z M54.6879688,24.65733 C53.4345508,24.65733 52.554668,25.6119198 52.4633594,26.931744 L56.8295703,26.931744 C56.7880664,25.5953183 55.9413867,24.65733 54.6879688,24.65733 Z M56.8212695,29.5381893 L58.5229297,29.5381893 C58.2739063,31.1319393 56.7631641,32.2691464 54.7626758,32.2691464 C52.1977344,32.2691464 50.6454883,30.5342831 50.6454883,27.7784237 C50.6454883,25.0391659 52.2226367,23.212994 54.6879688,23.212994 C57.1117969,23.212994 58.6225391,24.922955 58.6225391,27.5709042 L58.6225391,28.185162 L52.4550586,28.185162 L52.4550586,28.2930722 C52.4550586,29.8121151 53.3681445,30.8165097 54.8041797,30.8165097 C55.8251758,30.8165097 56.5805469,30.3018612 56.8212695,29.5381893 Z M67.558375,26.3755917 L65.8484141,26.3755917 C65.6657969,25.4459042 64.9685313,24.7071347 63.7981211,24.7071347 C62.4118906,24.7071347 61.4988047,25.8609433 61.4988047,27.7369198 C61.4988047,29.6544003 62.4201914,30.766705 63.8147227,30.766705 C64.9187266,30.766705 65.6408945,30.1607479 65.8484141,29.1480526 L67.5749766,29.1480526 C67.3840586,31.0074276 65.8982188,32.2691464 63.7981211,32.2691464 C61.2995859,32.2691464 59.6726328,30.5591854 59.6726328,27.7369198 C59.6726328,24.9644589 61.2995859,23.212994 63.7815195,23.212994 C66.0310313,23.212994 67.4006602,24.65733 67.558375,26.3755917 Z M72.6509492,32.2691464 C70.1524141,32.2691464 68.5088594,30.5508847 68.5088594,27.7369198 C68.5088594,24.9312558 70.1607149,23.212994 72.6509492,23.212994 C75.1411836,23.212994 76.7930391,24.9312558 76.7930391,27.7369198 C76.7930391,30.5508847 75.1494844,32.2691464 72.6509492,32.2691464 Z M72.6509492,30.7916073 C74.062082,30.7916073 74.9668672,29.6793026 74.9668672,27.7369198 C74.9668672,25.8028378 74.0537813,24.6905331 72.6509492,24.6905331 C71.2481172,24.6905331 70.3350313,25.8028378 70.3350313,27.7369198 C70.3350313,29.6793026 71.2481172,30.7916073 72.6509492,30.7916073 Z M78.2332695,32.1031308 L78.2332695,23.3707089 L79.9432305,23.3707089 L79.9432305,24.8565487 L79.9847344,24.8565487 C80.2752617,23.8355526 81.0555352,23.2295956 82.084832,23.2295956 C82.3421563,23.2295956 82.5662774,23.2710995 82.6990899,23.2960018 L82.6990899,24.9644589 C82.5579766,24.9063534 82.2425469,24.8648495 81.8939141,24.8648495 C80.7401055,24.8648495 80.0262383,25.6368222 80.0262383,26.8736386 L80.0262383,32.1031308 L78.2332695,32.1031308 Z M86.770668,32.2525448 C84.5626602,32.2525448 83.1017227,30.4927792 83.1017227,27.7369198 C83.1017227,24.9810604 84.5626602,23.2295956 86.7540664,23.2295956 C88.0074844,23.2295956 89.0035781,23.860455 89.4933242,24.8233456 L89.5265274,24.8233456 L89.5265274,20.1251034 L91.3277969,20.1251034 L91.3277969,32.1031308 L89.5846328,32.1031308 L89.5846328,30.6172909 L89.5514297,30.6172909 C89.0367813,31.6133847 88.0406875,32.2525448 86.770668,32.2525448 Z M87.2438125,24.7403378 C85.8243789,24.7403378 84.9361953,25.9024472 84.9361953,27.7369198 C84.9361953,29.5796933 85.8243789,30.7335018 87.2438125,30.7335018 C88.6217422,30.7335018 89.5431289,29.5630917 89.5431289,27.7369198 C89.5431289,25.9273495 88.6217422,24.7403378 87.2438125,24.7403378 Z M108.236578,23.3707089 L105.845953,32.1031308 L103.978277,32.1031308 L102.143805,25.5621151 L102.102301,25.5621151 L100.28443,32.1031308 L98.4333555,32.1031308 L96.0344297,23.3707089 L97.8273985,23.3707089 L99.4211485,30.2437558 L99.4543516,30.2437558 L101.272223,23.3707089 L102.998785,23.3707089 L104.824957,30.2437558 L104.866461,30.2437558 L106.460211,23.3707089 L108.236578,23.3707089 Z M109.452688,32.1031308 L109.452688,20.1251034 L111.229055,20.1251034 L111.229055,24.8316464 L111.270559,24.8316464 C111.752004,23.8106503 112.706594,23.2212948 114.034719,23.2212948 C115.952199,23.2212948 117.097707,24.4996151 117.097707,26.4752011 L117.097707,32.1031308 L115.296438,32.1031308 L115.296438,26.8238339 C115.296438,25.5372128 114.648977,24.7652401 113.387258,24.7652401 C112.059133,24.7652401 111.245656,25.6783261 111.245656,27.0562558 L111.245656,32.1031308 L109.452688,32.1031308 Z M122.530613,24.65733 C121.277195,24.65733 120.397313,25.6119198 120.306004,26.931744 L124.672215,26.931744 C124.630711,25.5953183 123.784031,24.65733 122.530613,24.65733 Z M124.663914,29.5381893 L126.365574,29.5381893 C126.116551,31.1319393 124.605809,32.2691464 122.60532,32.2691464 C120.040379,32.2691464 118.488133,30.5342831 118.488133,27.7784237 C118.488133,25.0391659 120.065281,23.212994 122.530613,23.212994 C124.954441,23.212994 126.465184,24.922955 126.465184,27.5709042 L126.465184,28.185162 L120.297703,28.185162 L120.297703,28.2930722 C120.297703,29.8121151 121.210789,30.8165097 122.646824,30.8165097 C123.66782,30.8165097 124.423191,30.3018612 124.663914,29.5381893 Z M127.905414,32.1031308 L127.905414,23.3707089 L129.615375,23.3707089 L129.615375,24.8316464 L129.656879,24.8316464 C130.130023,23.8355526 131.059711,23.2212948 132.404438,23.2212948 C134.330219,23.2212948 135.434223,24.4498104 135.434223,26.4502987 L135.434223,32.1031308 L133.632953,32.1031308 L133.632953,26.7989315 C133.632953,25.4874081 133.018695,24.7652401 131.773578,24.7652401 C130.511859,24.7652401 129.698383,25.6617245 129.698383,27.0147518 L129.698383,32.1031308 L127.905414,32.1031308 Z M140.867129,24.65733 C139.613711,24.65733 138.733828,25.6119198 138.64252,26.931744 L143.00873,26.931744 C142.967227,25.5953183 142.120547,24.65733 140.867129,24.65733 Z M143.00043,29.5381893 L144.70209,29.5381893 C144.453066,31.1319393 142.942324,32.2691464 140.941836,32.2691464 C138.376895,32.2691464 136.824648,30.5342831 136.824648,27.7784237 C136.824648,25.0391659 138.401797,23.212994 140.867129,23.212994 C143.290957,23.212994 144.801699,24.922955 144.801699,27.5709042 L144.801699,28.185162 L138.634219,28.185162 L138.634219,28.2930722 C138.634219,29.8121151 139.547305,30.8165097 140.98334,30.8165097 C142.004336,30.8165097 142.759707,30.3018612 143.00043,29.5381893 Z M153.654527,23.3707089 L150.525133,32.1031308 L148.599352,32.1031308 L145.453355,23.3707089 L147.362535,23.3707089 L149.553941,30.3516659 L149.587145,30.3516659 L151.778551,23.3707089 L153.654527,23.3707089 Z M158.141145,24.65733 C156.887727,24.65733 156.007844,25.6119198 155.916535,26.931744 L160.282746,26.931744 C160.241242,25.5953183 159.394563,24.65733 158.141145,24.65733 Z M160.274445,29.5381893 L161.976105,29.5381893 C161.727082,31.1319393 160.21634,32.2691464 158.215852,32.2691464 C155.65091,32.2691464 154.098664,30.5342831 154.098664,27.7784237 C154.098664,25.0391659 155.675813,23.212994 158.141145,23.212994 C160.564973,23.212994 162.075715,24.922955 162.075715,27.5709042 L162.075715,28.185162 L155.908234,28.185162 L155.908234,28.2930722 C155.908234,29.8121151 156.82132,30.8165097 158.257355,30.8165097 C159.278352,30.8165097 160.033723,30.3018612 160.274445,29.5381893 Z M163.515945,32.1031308 L163.515945,23.3707089 L165.225906,23.3707089 L165.225906,24.8565487 L165.26741,24.8565487 C165.557938,23.8355526 166.338211,23.2295956 167.367508,23.2295956 C167.624832,23.2295956 167.848953,23.2710995 167.981766,23.2960018 L167.981766,24.9644589 C167.840652,24.9063534 167.525223,24.8648495 167.17659,24.8648495 C166.022781,24.8648495 165.308914,25.6368222 165.308914,26.8736386 L165.308914,32.1031308 L163.515945,32.1031308 Z M173.510176,35.357037 C173.369063,35.357037 172.91252,35.3404354 172.779707,35.3155331 L172.779707,33.8628964 C172.91252,33.8960995 173.211348,33.8960995 173.360762,33.8960995 C174.199141,33.8960995 174.639082,33.5474667 174.913008,32.6509823 C174.913008,32.6343808 175.070723,32.1197323 175.070723,32.1114315 L171.916426,23.3707089 L173.858809,23.3707089 L176.075117,30.4761776 L176.10002,30.4761776 L178.316328,23.3707089 L180.208906,23.3707089 L176.930098,32.5596737 C176.183027,34.6763729 175.328047,35.357037 173.510176,35.357037 Z M184.811734,32.2691464 C182.313199,32.2691464 180.669645,30.5508847 180.669645,27.7369198 C180.669645,24.9312558 182.3215,23.212994 184.811734,23.212994 C187.301969,23.212994 188.953824,24.9312558 188.953824,27.7369198 C188.953824,30.5508847 187.31027,32.2691464 184.811734,32.2691464 Z M184.811734,30.7916073 C186.222867,30.7916073 187.127652,29.6793026 187.127652,27.7369198 C187.127652,25.8028378 186.214566,24.6905331 184.811734,24.6905331 C183.408902,24.6905331 182.495816,25.8028378 182.495816,27.7369198 C182.495816,29.6793026 183.408902,30.7916073 184.811734,30.7916073 Z M197.881359,23.3707089 L197.881359,32.1031308 L196.163098,32.1031308 L196.163098,30.6255917 L196.121594,30.6255917 C195.640148,31.6714901 194.751965,32.2608456 193.415539,32.2608456 C191.51466,32.2608456 190.352551,31.0240292 190.352551,29.0235409 L190.352551,23.3707089 L192.14552,23.3707089 L192.14552,28.6749081 C192.14552,30.0030331 192.776379,30.7169003 194.013195,30.7169003 C195.308117,30.7169003 196.088391,29.8204159 196.088391,28.4590878 L196.088391,23.3707089 L197.881359,23.3707089 Z M201.280574,24.5079159 L199.85284,24.5079159 L200.591609,20.1251034 L202.409481,20.1251034 L201.280574,24.5079159 Z M203.866313,32.1031308 L203.866313,23.3707089 L205.576273,23.3707089 L205.576273,24.8565487 L205.617777,24.8565487 C205.908305,23.8355526 206.688578,23.2295956 207.717875,23.2295956 C207.975199,23.2295956 208.19932,23.2710995 208.332133,23.2960018 L208.332133,24.9644589 C208.19102,24.9063534 207.87559,24.8648495 207.526957,24.8648495 C206.373148,24.8648495 205.659281,25.6368222 205.659281,26.8736386 L205.659281,32.1031308 L203.866313,32.1031308 Z M212.777246,24.65733 C211.523828,24.65733 210.643945,25.6119198 210.552637,26.931744 L214.918848,26.931744 C214.877344,25.5953183 214.030664,24.65733 212.777246,24.65733 Z M214.910547,29.5381893 L216.612207,29.5381893 C216.363184,31.1319393 214.852441,32.2691464 212.851953,32.2691464 C210.287012,32.2691464 208.734766,30.5342831 208.734766,27.7784237 C208.734766,25.0391659 210.311914,23.212994 212.777246,23.212994 C215.201074,23.212994 216.711816,24.922955 216.711816,27.5709042 L216.711816,28.185162 L210.544336,28.185162 L210.544336,28.2930722 C210.544336,29.8121151 211.457422,30.8165097 212.893457,30.8165097 C213.914453,30.8165097 214.669824,30.3018612 214.910547,29.5381893 Z M221.650871,32.1031308 L221.650871,23.3707089 L223.360832,23.3707089 L223.360832,24.8565487 L223.402336,24.8565487 C223.692863,23.8355526 224.473137,23.2295956 225.502434,23.2295956 C225.759758,23.2295956 225.983879,23.2710995 226.116691,23.2960018 L226.116691,24.9644589 C225.975578,24.9063534 225.660148,24.8648495 225.311516,24.8648495 C224.157707,24.8648495 223.44384,25.6368222 223.44384,26.8736386 L223.44384,32.1031308 L221.650871,32.1031308 Z M230.561805,24.65733 C229.308387,24.65733 228.428504,25.6119198 228.337195,26.931744 L232.703406,26.931744 C232.661902,25.5953183 231.815223,24.65733 230.561805,24.65733 Z M232.695106,29.5381893 L234.396766,29.5381893 C234.147742,31.1319393 232.637,32.2691464 230.636512,32.2691464 C228.07157,32.2691464 226.519324,30.5342831 226.519324,27.7784237 C226.519324,25.0391659 228.096473,23.212994 230.561805,23.212994 C232.985633,23.212994 234.496375,24.922955 234.496375,27.5709042 L234.496375,28.185162 L228.328895,28.185162 L228.328895,28.2930722 C228.328895,29.8121151 229.241981,30.8165097 230.678016,30.8165097 C231.699012,30.8165097 232.454383,30.3018612 232.695106,29.5381893 Z M238.991293,30.8331112 C240.244711,30.8331112 241.224203,29.96983 241.224203,28.8326229 L241.224203,28.1436581 L239.074301,28.2764706 C238.0035,28.3511776 237.397543,28.8243222 237.397543,29.5713925 C237.397543,30.3350643 238.028402,30.8331112 238.991293,30.8331112 Z M238.493246,32.2525448 C236.783285,32.2525448 235.587973,31.1900448 235.587973,29.6211972 C235.587973,28.0938534 236.758383,27.1558651 238.833578,27.0396542 L241.224203,26.8985409 L241.224203,26.2261776 C241.224203,25.2549862 240.568441,24.6739315 239.472738,24.6739315 C238.435141,24.6739315 237.78768,25.1719784 237.629965,25.9522518 L235.936606,25.9522518 C236.036215,24.3751034 237.380941,23.212994 239.539145,23.212994 C241.655844,23.212994 243.008871,24.3335995 243.008871,26.0850643 L243.008871,32.1031308 L241.290609,32.1031308 L241.290609,30.6670956 L241.249106,30.6670956 C240.742758,31.638287 239.638754,32.2525448 238.493246,32.2525448 Z M248.076543,32.2525448 C245.868535,32.2525448 244.407598,30.4927792 244.407598,27.7369198 C244.407598,24.9810604 245.868535,23.2295956 248.059941,23.2295956 C249.313359,23.2295956 250.309453,23.860455 250.799199,24.8233456 L250.832402,24.8233456 L250.832402,20.1251034 L252.633672,20.1251034 L252.633672,32.1031308 L250.890508,32.1031308 L250.890508,30.6172909 L250.857305,30.6172909 C250.342656,31.6133847 249.346563,32.2525448 248.076543,32.2525448 Z M248.549688,24.7403378 C247.130254,24.7403378 246.24207,25.9024472 246.24207,27.7369198 C246.24207,29.5796933 247.130254,30.7335018 248.549688,30.7335018 C249.927617,30.7335018 250.849004,29.5630917 250.849004,27.7369198 C250.849004,25.9273495 249.927617,24.7403378 248.549688,24.7403378 Z M255.385426,35.357037 C255.244313,35.357037 254.78777,35.3404354 254.654957,35.3155331 L254.654957,33.8628964 C254.78777,33.8960995 255.086598,33.8960995 255.236012,33.8960995 C256.074391,33.8960995 256.514332,33.5474667 256.788258,32.6509823 C256.788258,32.6343808 256.945973,32.1197323 256.945973,32.1114315 L253.791676,23.3707089 L255.734059,23.3707089 L257.950367,30.4761776 L257.97527,30.4761776 L260.191578,23.3707089 L262.084156,23.3707089 L258.805348,32.5596737 C258.058277,34.6763729 257.203297,35.357037 255.385426,35.357037 Z M263.790012,20.1251034 L265.641086,20.1251034 L265.508273,28.1353573 L263.922824,28.1353573 L263.790012,20.1251034 Z M264.711398,32.2276425 C264.105441,32.2276425 263.623996,31.7627987 263.623996,31.1568417 C263.623996,30.5508847 264.105441,30.0860409 264.711398,30.0860409 C265.333957,30.0860409 265.807102,30.5508847 265.807102,31.1568417 C265.807102,31.7627987 265.333957,32.2276425 264.711398,32.2276425 Z" id="Hit-record-whenever" fill="#6E6E6E"></path>
                                <g id="Group-2" transform="translate(53.051758, 67.246777)" fill="#6E6E6E" font-family="SFProDisplay-Medium, SF Pro Display" font-size="17" font-weight="400" letter-spacing="0.0540000014">
                                    <text id="Record">
                                        <tspan x="0" y="16.0368324">Record</tspan>
                                    </text>
                                </g>
                                <g id="Group-3" transform="translate(197.192383, 67.246777)" fill="#6E6E6E" font-family="SFProDisplay-Medium, SF Pro Display" font-size="17" font-weight="400" letter-spacing="0.0540000014">
                                    <g id="Group-2-Copy-3">
                                        <text id="Done">
                                            <tspan x="0" y="16.0368324">Done</tspan>
                                        </text>
                                    </g>
                                </g>
                            </g>
                        </g>
                    </g>
                </g>
                <g id="screen-reflect" transform="translate(23.022461, 21.077348)" fill="url(#linearGradient-8)" opacity="0.300000012">
                    <g id="Group" transform="translate(1.000977, 0.000000)">
                        <path d="M362.288202,784.132627 L362.288202,19.6749168 C362.288202,12.5510395 358.903861,5.5903916 352.34375,0 C357.399952,1.95794796 360.66707,2.16970234 364.163715,5.72264034 C371.073591,12.7441675 375.366211,21.7702655 375.366211,29.2780844 L375.366211,771.51841 C375.366211,780.803812 370.949793,789.376776 365.804636,796.184473 C362.309012,800.80963 357.342684,804.97532 353.011882,807.105899 C359.259188,802.133989 362.288202,791.256504 362.288202,784.132627 Z" id="reflect-glass-right"></path>
                        <path d="M13.0780088,783.12271 C13.0780088,790.246587 15.7604933,802.014145 22.0077991,806.986055 C17.6769977,804.855475 14.699141,801.654023 11.2024955,798.101342 C4.29262,791.079815 0,781.027618 0,773.519542 L0,28.2681671 C0,20.7603482 4.29262,11.7342502 11.2024955,4.71272304 C14.699141,1.15978504 17.9662585,1.95794796 23.0224609,0 C16.4623499,5.5903916 13.0780088,11.5411222 13.0780088,18.6649995 L13.0780088,783.12271 Z" id="reflect-glass-left"></path>
                    </g>
                </g>
            </g>
        </g>
    </g>
</svg>